<svg xmlns="http://www.w3.org/2000/svg" version="1.1" xmlns:xlink="http://www.w3.org/1999/xlink" xmlns:svgjs="http://svgjs.dev/svgjs" viewBox="0 0 800 800"><defs><filter id="bbburst-blur-1" x="-100%" y="-100%" width="400%" height="400%"><feGaussianBlur in="SourceGraphic" stdDeviation="1"></feGaussianBlur></filter><filter id="bbburst-blur-2" x="-100%" y="-100%" width="400%" height="400%"><feGaussianBlur in="SourceGraphic" stdDeviation="2"></feGaussianBlur></filter><filter id="bbburst-blur-3" x="-100%" y="-100%" width="400%" height="400%"><feGaussianBlur in="SourceGraphic" stdDeviation="4"></feGaussianBlur></filter><filter id="bbburst-blur-4" x="-100%" y="-100%" width="400%" height="400%"><feGaussianBlur in="SourceGraphic" stdDeviation="12"></feGaussianBlur></filter><symbol id="bbburst-shape-1" viewBox="0 0 194 167"><path d="m97 0 96.129 166.5H.871L97 0Z"></path></symbol><symbol id="bbburst-shape-4" viewBox="0 0 149 143"><path d="M71.647 2.781c.898-2.764 4.808-2.764 5.706 0l15.445 47.534a3 3 0 0 0 2.853 2.073h49.98c2.906 0 4.115 3.719 1.764 5.427L106.96 87.193a2.999 2.999 0 0 0-1.09 3.354l15.445 47.534c.898 2.764-2.266 5.062-4.617 3.354l-40.435-29.378a3 3 0 0 0-3.526 0l-40.435 29.378c-2.351 1.708-5.515-.59-4.617-3.354L43.13 90.547a3 3 0 0 0-1.09-3.354L1.605 57.815c-2.35-1.708-1.142-5.427 1.764-5.427h49.98a3 3 0 0 0 2.853-2.073L71.647 2.781Z"></path></symbol><symbol id="bbburst-shape-6" viewBox="0 0 133 116"><path d="M59.7487 10.2513c-13.6683-13.66839-35.8291-13.66839-49.4974 0-13.66839 13.6683-13.66839 35.8291 0 49.4974l49.4974-49.4974ZM66.5 66.5 41.7513 91.2487 66.5 115.997l24.7487-24.7483L66.5 66.5Zm56.249-6.7513c13.668-13.6683 13.668-35.8291 0-49.4974-13.669-13.66839-35.8294-13.66839-49.4977 0l49.4977 49.4974Zm-112.4977 0 31.5 31.5 49.4974-49.4974-31.5-31.5-49.4974 49.4974Zm80.9974 31.5 31.5003-31.5-49.4977-49.4974-31.5 31.5 49.4974 49.4974Z"></path></symbol><symbol id="bbburst-shape-8" viewBox="0 0 87 168"><path d="m12 12 31.2546 18.0749c16.4102 9.4902 20.014 31.6325 7.4603 45.8369L36.3296 92.1884c-12.5684 14.2206-8.9394 36.3916 7.5068 45.8636L75 156" stroke-width="14" stroke-linecap="round" stroke-linejoin="round"></path></symbol><symbol id="bbburst-shape-10" viewBox="0 0 145 145"><circle cx="72.5" cy="72.5" r="61.5" fill="none" stroke-width="22"></circle></symbol></defs><use xlink:href="#bbburst-shape-1" width="25.43284673132623" opacity="0.6852618829873652" transform="matrix(0.9066318766979258,0.42192255231878406,-0.42192255231878406,0.9066318766979258,478.7554212596978,-85.89520978909235)" fill="#fecc3d" filter="url(#bbburst-blur-1)"></use><use xlink:href="#bbburst-shape-6" width="35.03001434338113" opacity="0.30906850927496354" transform="matrix(1.189269755003713,0.3848862816903306,-0.3848862816903306,1.189269755003713,258.6812160352391,-228.57102915888098)" fill="#fecc3d" filter="url(#bbburst-blur-3)"></use><use xlink:href="#bbburst-shape-1" width="13.531212911109572" opacity="0.9293095234743104" transform="matrix(0.9997317027922277,-0.023162953873654326,0.023162953873654326,0.9997317027922277,352.7248551968778,6.24578028221822)" fill="#22c55e"></use><use xlink:href="#bbburst-shape-1" width="37.265726117889365" opacity="0.30979963075760797" transform="matrix(1.2477871875399318,-0.07434470129866075,0.07434470129866075,1.2477871875399318,650.2451243720857,-30.451723046990367)" fill="#ff8b37" filter="url(#bbburst-blur-3)"></use><use xlink:href="#bbburst-shape-4" width="29.092588905427338" opacity="0.3485787651669672" transform="matrix(0.7450022728006541,-0.6670619263020936,0.6670619263020936,0.7450022728006541,318.8115176722344,329.2903365176461)" fill="#ff8b37" filter="url(#bbburst-blur-2)"></use><use xlink:href="#bbburst-shape-4" width="38.671357939480615" opacity="-0.08358430097242353" transform="matrix(1.5822374187240367,0.7476795776196494,-0.7476795776196494,1.5822374187240367,1004.0483054847818,106.45693476182919)" fill="#fecc3d" filter="url(#bbburst-blur-4)"></use><use xlink:href="#bbburst-shape-4" width="38.00849709209017" opacity="0.09261375889738577" transform="matrix(1.7490561448297317,0.0574682715361846,-0.0574682715361846,1.7490561448297317,60.918039722667054,-542.7300107196673)" fill="#22c55e" filter="url(#bbburst-blur-4)"></use><use xlink:href="#bbburst-shape-4" width="20.583999403528786" opacity="0.7090131965068683" transform="matrix(0.9782785462914972,0.20729468364093373,-0.20729468364093373,0.9782785462914972,516.6167875391073,-116.83821934555851)" fill="#0f1108" filter="url(#bbburst-blur-1)"></use><use xlink:href="#bbburst-shape-1" width="32.252471855442536" opacity="0.6156443706814274" transform="matrix(0.9549558758360763,-0.2967478310049669,0.2967478310049669,0.9549558758360763,438.85166360236224,25.584188546020982)" fill="#fecc3d" filter="url(#bbburst-blur-1)"></use><use xlink:href="#bbburst-shape-4" width="39.941885096195875" opacity="0.15357407189334227" transform="matrix(1.147454921086399,-0.49582981362016376,0.49582981362016376,1.147454921086399,538.6754451017036,-173.7245356481073)" fill="#fecc3d" filter="url(#bbburst-blur-3)"></use><use xlink:href="#bbburst-shape-4" width="33.15988049440225" opacity="0.17274880560187755" transform="matrix(1.1228748314821828,0.5492286525882091,-0.5492286525882091,1.1228748314821828,356.75935513999275,-339.1103929529899)" fill="#22c55e" filter="url(#bbburst-blur-3)"></use><use xlink:href="#bbburst-shape-6" width="34.20588281191526" opacity="0.2311819864970861" transform="matrix(0.9853030249930507,0.7692060510289447,-0.7692060510289447,0.9853030249930507,771.8750120739144,329.0651550221195)" fill="#d64550" filter="url(#bbburst-blur-3)"></use><use xlink:href="#bbburst-shape-6" width="40.03123353994972" opacity="0.184532546179337" transform="matrix(1.2051273489230632,0.33191576171924897,-0.33191576171924897,1.2051273489230632,145.6062340907318,-35.18762661436858)" fill="#fecc3d" filter="url(#bbburst-blur-3)"></use><use xlink:href="#bbburst-shape-8" width="24.32534246842747" opacity="0.18744854200465777" transform="matrix(1.2245001551679622,-0.2511958797306134,0.2511958797306134,1.2245001551679622,650.1860958187245,-78.60943253393424)" fill="none" stroke="#0f1108" filter="url(#bbburst-blur-3)"></use><use xlink:href="#bbburst-shape-1" width="29.367778908465702" opacity="0.5264659687544395" transform="matrix(0.8695313861315042,-0.4938776858010746,0.4938776858010746,0.8695313861315042,313.2752054062047,233.07115710068905)" fill="#ff8b37" filter="url(#bbburst-blur-2)"></use><use xlink:href="#bbburst-shape-8" width="31.771440357955694" opacity="0.5458101096737644" transform="matrix(0.9469275347615481,-0.32144710904037876,0.32144710904037876,0.9469275347615481,214.650227258142,226.41579165923605)" fill="none" stroke="#ff8b37" filter="url(#bbburst-blur-2)"></use><use xlink:href="#bbburst-shape-10" width="38.34476377182632" opacity="0.25804748580436054" transform="matrix(1.2271829969091148,-0.2377433323926539,0.2377433323926539,1.2271829969091148,504.38942941515626,-334.7891126757546)" fill="none" stroke="#22c55e" filter="url(#bbburst-blur-3)"></use><use xlink:href="#bbburst-shape-10" width="23.911941430475295" opacity="0.6182297924397699" transform="matrix(0.9753268423706885,-0.22076582740818865,0.22076582740818865,0.9753268423706885,449.3309474068625,97.50343622832969)" fill="none" stroke="#0f1108" filter="url(#bbburst-blur-1)"></use><use xlink:href="#bbburst-shape-6" width="43.456561431047895" opacity="0.29255432549054095" transform="matrix(1.0166545285900506,0.7272644426185992,-0.7272644426185992,1.0166545285900506,941.9994663880867,140.99126110042175)" fill="#ff8b37" filter="url(#bbburst-blur-3)"></use><use xlink:href="#bbburst-shape-8" width="23.356041852892023" opacity="0.5730450625009893" transform="matrix(0.8667941209181802,0.49866617284680453,-0.49866617284680453,0.8667941209181802,405.0423900137903,-6.824923927543352)" fill="none" stroke="#ff8b37" filter="url(#bbburst-blur-1)"></use><use xlink:href="#bbburst-shape-4" width="36.687301760804246" opacity="0.11355230256277393" transform="matrix(1.0010360495899158,-0.7486166091006903,0.7486166091006903,1.0010360495899158,-280.61697997905463,-152.40424354404388)" fill="#0f1108" filter="url(#bbburst-blur-3)"></use><use xlink:href="#bbburst-shape-1" width="35.04231253788757" opacity="0.2643810646223671" transform="matrix(1.0807916140675506,0.6280043685845336,-0.6280043685845336,1.0807916140675506,445.1812733197416,229.8407797217995)" fill="#22c55e" filter="url(#bbburst-blur-3)"></use><use xlink:href="#bbburst-shape-10" width="30.267905999251454" opacity="0.5463358060900909" transform="matrix(0.7684123474136657,-0.6399550486887498,0.6399550486887498,0.7684123474136657,-71.35181187520291,115.22379099913013)" fill="none" stroke="#fecc3d" filter="url(#bbburst-blur-2)"></use><use xlink:href="#bbburst-shape-6" width="21.12499765022689" opacity="0.5382158606977556" transform="matrix(0.824719226307789,-0.5655423925385982,0.5655423925385982,0.824719226307789,209.19196750911965,279.1512138667367)" fill="#0f1108" filter="url(#bbburst-blur-2)"></use><use xlink:href="#bbburst-shape-10" width="29.274263893459597" opacity="0.5524669940796294" transform="matrix(0.7124501970228926,0.7017226779590648,-0.7017226779590648,0.7124501970228926,738.4085487698351,-84.76054041498398)" fill="none" stroke="#22c55e" filter="url(#bbburst-blur-2)"></use><use xlink:href="#bbburst-shape-10" width="35.28098417379114" opacity="0.4115564182250967" transform="matrix(0.7713191858963702,-0.6364485159603727,0.6364485159603727,0.7713191858963702,133.84448772026911,367.4914302955023)" fill="none" stroke="#22c55e" filter="url(#bbburst-blur-2)"></use><use xlink:href="#bbburst-shape-4" width="16.632725660855378" opacity="0.738538792534779" transform="matrix(0.9838954781232854,0.17874475692604708,-0.17874475692604708,0.9838954781232854,441.01738260513457,-110.55565539252211)" fill="#0f1108" filter="url(#bbburst-blur-1)"></use><use xlink:href="#bbburst-shape-1" width="32.69691869308631" opacity="0.5063884073169265" transform="matrix(0.7076673900451265,0.7065457275128898,-0.7065457275128898,0.7076673900451265,663.0431360091759,-116.57004424280538)" fill="#0f1108" filter="url(#bbburst-blur-2)"></use><use xlink:href="#bbburst-shape-4" width="22.278633168338807" opacity="0.6515571524144677" transform="matrix(0.8864925920907981,0.46274278402600494,-0.46274278402600494,0.8864925920907981,583.3455178705342,196.85447561393852)" fill="#22c55e" filter="url(#bbburst-blur-1)"></use><use xlink:href="#bbburst-shape-1" width="35.44388751531175" opacity="0.3565977812858623" transform="matrix(0.8449289992464658,0.5348784780044582,-0.5348784780044582,0.8449289992464658,400.12807297404856,-157.88008282230524)" fill="#fecc3d" filter="url(#bbburst-blur-2)"></use><use xlink:href="#bbburst-shape-4" width="21.227624093855553" opacity="0.6527376004328109" transform="matrix(0.9552483506524372,-0.2958049840279884,0.2958049840279884,0.9552483506524372,335.73649495673055,163.5337502926369)" fill="#ff8b37" filter="url(#bbburst-blur-1)"></use><use xlink:href="#bbburst-shape-6" width="28.109851442077222" opacity="0.07953899308914902" transform="matrix(1.5395688541839654,-0.8320022495322185,0.8320022495322185,1.5395688541839654,241.34651953400703,160.8814210968818)" fill="#0f1108" filter="url(#bbburst-blur-4)"></use><use xlink:href="#bbburst-shape-4" width="25.120734435544236" opacity="0.6432349454903477" transform="matrix(0.9250027863776343,0.37996032055151846,-0.37996032055151846,0.9250027863776343,470.4236476695701,169.75972220553916)" fill="#ff8b37" filter="url(#bbburst-blur-1)"></use><use xlink:href="#bbburst-shape-6" width="27.005190417844506" opacity="0.45336000062017345" transform="matrix(0.998989552495496,-0.04494300840896778,0.04494300840896778,0.998989552495496,519.3071851389471,-193.35301649807127)" fill="#0f1108" filter="url(#bbburst-blur-2)"></use><use xlink:href="#bbburst-shape-10" width="12.052538678976205" opacity="0.8663622453343621" transform="matrix(0.8611396689361216,0.5083684397999023,-0.5083684397999023,0.8611396689361216,610.346712422452,111.36936719874478)" fill="none" stroke="#22c55e"></use><use xlink:href="#bbburst-shape-1" width="51.658063023133025" opacity="-0.08188043892387098" transform="matrix(1.7141587612669098,0.3523630814541917,-0.3523630814541917,1.7141587612669098,144.09185862041738,41.09383744461377)" fill="#ff8b37" filter="url(#bbburst-blur-4)"></use><use xlink:href="#bbburst-shape-6" width="29.0588703924062" opacity="0.49328853500550707" transform="matrix(0.7452654566386118,0.6667678750069184,-0.6667678750069184,0.7452654566386118,877.4530043602969,38.37328808442629)" fill="#d64550" filter="url(#bbburst-blur-2)"></use><use xlink:href="#bbburst-shape-10" width="29.84708094276362" opacity="0.21937210469950497" transform="matrix(1.1700003165678505,-0.43999915821638724,0.43999915821638724,1.1700003165678505,498.28755342742727,-257.0933620852534)" fill="none" stroke="#d64550" filter="url(#bbburst-blur-3)"></use><use xlink:href="#bbburst-shape-8" width="34.31957228613764" opacity="0.4842347683319306" transform="matrix(0.7974517294755394,-0.6033827468170357,0.6033827468170357,0.7974517294755394,-50.80893030644228,-33.29119784098282)" fill="none" stroke="#0f1108" filter="url(#bbburst-blur-2)"></use><use xlink:href="#bbburst-shape-4" width="47.07056036340518" opacity="0.20464656261761915" transform="matrix(1.2333708507553658,0.20321502037739528,-0.20321502037739528,1.2333708507553658,99.82448794461601,-160.49222808530078)" fill="#0f1108" filter="url(#bbburst-blur-3)"></use><use xlink:href="#bbburst-shape-8" width="13.290806544334245" opacity="0.8823021170161612" transform="matrix(0.8506346663085123,0.5257572295976595,-0.5257572295976595,0.8506346663085123,565.6134110966684,20.45660858884878)" fill="none" stroke="#22c55e"></use><use xlink:href="#bbburst-shape-6" width="38.561651926793445" opacity="0.3127188257673641" transform="matrix(1.1966824877760445,-0.3611800429842948,0.3611800429842948,1.1966824877760445,536.4418832733866,-128.66486371420712)" fill="#fecc3d" filter="url(#bbburst-blur-3)"></use><use xlink:href="#bbburst-shape-4" width="19.998314273658142" opacity="0.8345863030401196" transform="matrix(0.8399905166646306,-0.5426010799044605,0.5426010799044605,0.8399905166646306,247.53555642029337,84.16865751482317)" fill="#ff8b37"></use><use xlink:href="#bbburst-shape-4" width="28.52581424596953" opacity="0.44636639802403855" transform="matrix(0.756630006792631,-0.6538432784857416,0.6538432784857416,0.756630006792631,376.4030266367245,121.15244996444665)" fill="#fecc3d" filter="url(#bbburst-blur-2)"></use><use xlink:href="#bbburst-shape-8" width="31.477635979048248" opacity="0.5891679606522919" transform="matrix(0.7604644663799253,-0.6493795464699328,0.6493795464699328,0.7604644663799253,67.84187490409937,-68.68181712806145)" fill="none" stroke="#d64550" filter="url(#bbburst-blur-1)"></use><use xlink:href="#bbburst-shape-6" width="38.2748863941031" opacity="0.20524700850297994" transform="matrix(1.2379793643867658,0.172936674400022,-0.172936674400022,1.2379793643867658,471.8709568714104,-455.16476722790543)" fill="#22c55e" filter="url(#bbburst-blur-3)"></use><use xlink:href="#bbburst-shape-10" width="30.198265347450622" opacity="0.41456218628690766" transform="matrix(0.9081475747684202,0.4186501910213783,-0.4186501910213783,0.9081475747684202,651.9843352315037,274.8658653459342)" fill="none" stroke="#ff8b37" filter="url(#bbburst-blur-2)"></use><use xlink:href="#bbburst-shape-6" width="27.275272772129703" opacity="0.6559749211091443" transform="matrix(0.9980215488270497,-0.06287279281896635,0.06287279281896635,0.9980215488270497,244.967426847536,103.86049800184873)" fill="#0f1108" filter="url(#bbburst-blur-1)"></use><use xlink:href="#bbburst-shape-4" width="27.26269783782846" opacity="0.3897615920172516" transform="matrix(0.9867697039185391,0.16212819442810886,-0.16212819442810886,0.9867697039185391,514.7980685981848,-264.0813930886165)" fill="#0f1108" filter="url(#bbburst-blur-2)"></use><use xlink:href="#bbburst-shape-8" width="21.855798985411283" opacity="0.692266889569618" transform="matrix(0.7159305586116429,0.6981714941517027,-0.6981714941517027,0.7159305586116429,535.4700374327981,79.7780559847285)" fill="none" stroke="#fecc3d" filter="url(#bbburst-blur-1)"></use><use xlink:href="#bbburst-shape-10" width="42.68513998425597" opacity="0.06206507188705168" transform="matrix(1.6313787180092736,0.6333273075009623,-0.6333273075009623,1.6313787180092736,861.2861213417202,-611.329056887377)" fill="none" stroke="#22c55e" filter="url(#bbburst-blur-4)"></use><use xlink:href="#bbburst-shape-10" width="34.89051236091241" opacity="0.2506634108965188" transform="matrix(1.1770903766978924,-0.4206640525231671,0.4206640525231671,1.1770903766978924,64.81718843972851,-367.2688386583777)" fill="none" stroke="#0f1108" filter="url(#bbburst-blur-3)"></use><use xlink:href="#bbburst-shape-6" width="22.31210649609668" opacity="0.7873045767691857" transform="matrix(0.998054233295387,-0.062351803511664326,0.062351803511664326,0.998054233295387,434.148698225014,66.509477152317)" fill="#d64550"></use><use xlink:href="#bbburst-shape-4" width="40.61837421026233" opacity="0.2841956309839516" transform="matrix(1.1832402480071273,0.40304158035621007,-0.40304158035621007,1.1832402480071273,242.50246956856904,48.66409780434742)" fill="#0f1108" filter="url(#bbburst-blur-3)"></use><use xlink:href="#bbburst-shape-4" width="38.895518781537504" opacity="0.3608456790102218" transform="matrix(0.9645935467538833,-0.2637409516187503,0.2637409516187503,0.9645935467538833,-10.855685313328522,43.40920192617091)" fill="#ff8b37" filter="url(#bbburst-blur-2)"></use><use xlink:href="#bbburst-shape-4" width="16.81035895336759" opacity="0.7713561968095599" transform="matrix(0.9788398065748601,-0.20462803587116415,0.20462803587116415,0.9788398065748601,219.23986721842664,58.80531577796165)" fill="#ff8b37" filter="url(#bbburst-blur-1)"></use><use xlink:href="#bbburst-shape-6" width="23.87279887838757" opacity="0.6715314729110669" transform="matrix(0.9030146796964854,0.4296096929221382,-0.4296096929221382,0.9030146796964854,662.3994785174973,141.2738644404725)" fill="#d64550" filter="url(#bbburst-blur-1)"></use><use xlink:href="#bbburst-shape-6" width="14.01767550698308" opacity="0.8669161915552469" transform="matrix(0.9304900035908715,0.36631728490129967,-0.36631728490129967,0.9304900035908715,500.66337151586765,70.38931408842222)" fill="#0f1108"></use><use xlink:href="#bbburst-shape-1" width="13.307976474910125" opacity="0.8862758892116193" transform="matrix(0.7268627549519444,-0.6867827425493958,0.6867827425493958,0.7268627549519444,158.70434347660017,147.8445661334449)" fill="#fecc3d"></use><use xlink:href="#bbburst-shape-8" width="33.41667077175729" opacity="0.148935629085294" transform="matrix(0.9566835243603626,-0.8045226126203262,0.8045226126203262,0.9566835243603626,323.93740983526703,310.3573603034219)" fill="none" stroke="#fecc3d" filter="url(#bbburst-blur-3)"></use><use xlink:href="#bbburst-shape-10" width="16.76035967588821" opacity="0.8181792576485821" transform="matrix(0.8098634707937795,0.5866184097638371,-0.5866184097638371,0.8098634707937795,608.9580938818344,150.7445492220059)" fill="none" stroke="#ff8b37"></use><use xlink:href="#bbburst-shape-10" width="31.39959766357488" opacity="0.1501372274958206" transform="matrix(1.2499808405127948,-0.006920863452420857,0.006920863452420857,1.2499808405127948,249.69645401026295,260.5297666354521)" fill="none" stroke="#d64550" filter="url(#bbburst-blur-3)"></use><use xlink:href="#bbburst-shape-6" width="16.976485202279935" opacity="0.8212207479082172" transform="matrix(0.9156133277388404,-0.40205998814481253,0.40205998814481253,0.9156133277388404,304.0540199999768,2.6089336119341624)" fill="#0f1108"></use><use xlink:href="#bbburst-shape-4" width="20.27952897845557" opacity="0.6447352740392991" transform="matrix(0.9660348782609554,-0.2584117140985313,0.2584117140985313,0.9660348782609554,290.1523851313734,-143.61083707087874)" fill="#ff8b37" filter="url(#bbburst-blur-1)"></use><use xlink:href="#bbburst-shape-1" width="18.15421324632245" opacity="0.7686401812822237" transform="matrix(0.991617254996018,-0.12920998256389551,0.12920998256389551,0.991617254996018,371.6367484822157,103.51779841179899)" fill="#ff8b37" filter="url(#bbburst-blur-1)"></use><use xlink:href="#bbburst-shape-10" width="37.12278634161313" opacity="0.347168667945991" transform="matrix(0.7917442923501277,-0.610852662702714,0.610852662702714,0.7917442923501277,106.78166235789297,-197.13821547256595)" fill="none" stroke="#22c55e" filter="url(#bbburst-blur-2)"></use><use xlink:href="#bbburst-shape-4" width="44.13608342456516" opacity="0.042648128955318554" transform="matrix(1.7301690377576808,0.26270725301114317,-0.26270725301114317,1.7301690377576808,820.8276433890411,-52.18519545289689)" fill="#d64550" filter="url(#bbburst-blur-4)"></use><use xlink:href="#bbburst-shape-1" width="23.108218307971235" opacity="0.760292663592572" transform="matrix(0.9052312232222238,-0.42491932470010857,0.42491932470010857,0.9052312232222238,291.4438740979814,-37.60461362650659)" fill="#fecc3d" filter="url(#bbburst-blur-1)"></use><use xlink:href="#bbburst-shape-10" width="30.08846615466029" opacity="0.38588944891377774" transform="matrix(0.9402158735129728,0.3405790821442763,-0.3405790821442763,0.9402158735129728,761.5523896470868,-119.14277835576883)" fill="none" stroke="#ff8b37" filter="url(#bbburst-blur-2)"></use><use xlink:href="#bbburst-shape-8" width="35.29674845726768" opacity="0.38463243243668555" transform="matrix(0.718012391136772,-0.6960303198669259,0.6960303198669259,0.718012391136772,-101.87609650308931,304.6583111738074)" fill="none" stroke="#0f1108" filter="url(#bbburst-blur-2)"></use><use xlink:href="#bbburst-shape-10" width="19.821999766242925" opacity="0.6779169244257698" transform="matrix(0.7987022997236721,0.6017263800234434,-0.6017263800234434,0.7987022997236721,765.1519377727268,15.537699144601675)" fill="none" stroke="#0f1108" filter="url(#bbburst-blur-1)"></use><use xlink:href="#bbburst-shape-10" width="18.362474461241213" opacity="0.700937205443775" transform="matrix(0.7989213563357541,0.6014355047639264,-0.6014355047639264,0.7989213563357541,500.93884871326765,99.5661765721976)" fill="none" stroke="#0f1108" filter="url(#bbburst-blur-1)"></use><use xlink:href="#bbburst-shape-1" width="18.303743651709762" opacity="0.7563881060148883" transform="matrix(0.9991503049578295,0.04121490146386806,-0.04121490146386806,0.9991503049578295,317.71388089297596,-63.13837132332509)" fill="#0f1108" filter="url(#bbburst-blur-1)"></use><use xlink:href="#bbburst-shape-4" width="48.266496814483595" opacity="-0.0836443185031619" transform="matrix(1.339324539947807,-1.1263701774699093,1.1263701774699093,1.339324539947807,-429.50799382701035,-451.41792133101717)" fill="#d64550" filter="url(#bbburst-blur-4)"></use><use xlink:href="#bbburst-shape-10" width="13.174810130049828" opacity="0.8029290248185339" transform="matrix(0.9787977420867763,-0.2048291485258593,0.2048291485258593,0.9787977420867763,225.25321091033587,-10.298412970012293)" fill="none" stroke="#0f1108"></use><use xlink:href="#bbburst-shape-6" width="31.536036464690397" opacity="0.5493414272742494" transform="matrix(0.7107601134113556,-0.7034344754015665,0.7034344754015665,0.7107601134113556,278.9478711860042,18.601692626383453)" fill="#fecc3d" filter="url(#bbburst-blur-2)"></use><use xlink:href="#bbburst-shape-6" width="39.80774153600015" opacity="0.08995913885106677" transform="matrix(1.6736244126877742,-0.511352447198117,0.511352447198117,1.6736244126877742,-202.2603446176384,-72.42324248079035)" fill="#ff8b37" filter="url(#bbburst-blur-4)"></use><use xlink:href="#bbburst-shape-6" width="37.500453389838285" opacity="0.412042749274675" transform="matrix(0.8738874419324163,-0.48612831519344524,0.48612831519344524,0.8738874419324163,-69.29872762201018,2.9886012729511435)" fill="#d64550" filter="url(#bbburst-blur-2)"></use><use xlink:href="#bbburst-shape-10" width="17.55677810797826" opacity="0.7284947821002313" transform="matrix(0.9024526732584587,-0.43078901161550265,0.43078901161550265,0.9024526732584587,199.10262759139007,163.21850986687036)" fill="none" stroke="#0f1108" filter="url(#bbburst-blur-1)"></use><use xlink:href="#bbburst-shape-4" width="27.512432396604517" opacity="0.6240183186907304" transform="matrix(0.8954485956219207,-0.44516492741312175,0.44516492741312175,0.8954485956219207,318.05107513451003,-81.91820859158639)" fill="#ff8b37" filter="url(#bbburst-blur-1)"></use><use xlink:href="#bbburst-shape-4" width="31.004294690767267" opacity="0.49215725116377673" transform="matrix(0.9258325913773633,0.3779338735063005,-0.3779338735063005,0.9258325913773633,751.7869819913035,101.36300995626169)" fill="#0f1108" filter="url(#bbburst-blur-2)"></use><use xlink:href="#bbburst-shape-4" width="18.846149318404684" opacity="0.7568976586447921" transform="matrix(0.9756321172638741,-0.2194127885133639,0.2194127885133639,0.9756321172638741,237.82604424868336,99.66056647111049)" fill="#ff8b37" filter="url(#bbburst-blur-1)"></use><use xlink:href="#bbburst-shape-4" width="49.975577406543714" opacity="0.1519254533880391" transform="matrix(1.173437939110952,0.4307474933821924,-0.4307474933821924,1.173437939110952,252.30200958986518,167.22693379522883)" fill="#0f1108" filter="url(#bbburst-blur-3)"></use><use xlink:href="#bbburst-shape-4" width="28.60273438047367" opacity="0.4752137661978838" transform="matrix(0.8252965964082682,0.5646995023522936,-0.5646995023522936,0.8252965964082682,803.107640593932,203.35577655131482)" fill="#0f1108" filter="url(#bbburst-blur-2)"></use><use xlink:href="#bbburst-shape-1" width="42.411215858420256" opacity="-0.09362436910342664" transform="matrix(1.6018300487630301,-0.7047272485719767,0.7047272485719767,1.6018300487630301,430.25602053625164,-575.5919605686627)" fill="#d64550" filter="url(#bbburst-blur-4)"></use><use xlink:href="#bbburst-shape-10" width="21.860769260101186" opacity="0.63860889938882" transform="matrix(0.9960882893384561,0.08836356626341108,-0.08836356626341108,0.9960882893384561,291.86002685820085,-93.55553282187299)" fill="none" stroke="#0f1108" filter="url(#bbburst-blur-1)"></use><use xlink:href="#bbburst-shape-6" width="31.16675666954752" opacity="0.2956731349633763" transform="matrix(1.0913685941094011,-0.6094379310411103,0.6094379310411103,1.0913685941094011,74.64245140953841,283.24906249013884)" fill="#fecc3d" filter="url(#bbburst-blur-3)"></use><use xlink:href="#bbburst-shape-1" width="17.803767803301547" opacity="0.9478905847711531" transform="matrix(0.8172798960549612,0.5762408971119559,-0.5762408971119559,0.8172798960549612,619.0892003125196,44.89245879897038)" fill="#0f1108"></use><use xlink:href="#bbburst-shape-6" width="37.83195146991282" opacity="0.04034493368333392" transform="matrix(1.6234968847140319,0.6532670704419696,-0.6532670704419696,1.6234968847140319,982.9081989742081,-511.4879279886872)" fill="#ff8b37" filter="url(#bbburst-blur-4)"></use><use xlink:href="#bbburst-shape-10" width="25.644825328758664" opacity="0.25618614644972715" transform="matrix(1.2305166837206565,0.21983787454648895,-0.21983787454648895,1.2305166837206565,631.329196509693,199.4216774563095)" fill="none" stroke="#ff8b37" filter="url(#bbburst-blur-3)"></use><use xlink:href="#bbburst-shape-6" width="40.97746809364598" opacity="0.4217495962048473" transform="matrix(0.9683087298234612,-0.2497562887049601,0.2497562887049601,0.9683087298234612,170.18510357684312,253.5791248460672)" fill="#22c55e" filter="url(#bbburst-blur-2)"></use><use xlink:href="#bbburst-shape-4" width="14.631617916973306" opacity="0.8476515024034909" transform="matrix(0.8533690948713293,0.521307191508508,-0.521307191508508,0.8533690948713293,534.4299322482595,64.71784069589177)" fill="#0f1108"></use><use xlink:href="#bbburst-shape-1" width="29.834283609869253" opacity="0.42956415358670497" transform="matrix(0.7850292954548507,0.6194586388756401,-0.6194586388756401,0.7850292954548507,533.8085249711969,-158.67854147043187)" fill="#d64550" filter="url(#bbburst-blur-2)"></use><use xlink:href="#bbburst-shape-1" width="33.98176767430917" opacity="0.5295974025145087" transform="matrix(0.9138988523707231,-0.40594197570031515,0.40594197570031515,0.9138988523707231,86.50641335374212,203.9193510331845)" fill="#fecc3d" filter="url(#bbburst-blur-2)"></use><use xlink:href="#bbburst-shape-6" width="18.48268501725157" opacity="0.7461282195225574" transform="matrix(0.9152819218615832,0.40281385715162127,-0.40281385715162127,0.9152819218615832,666.5151983520507,20.68351777826109)" fill="#fecc3d" filter="url(#bbburst-blur-1)"></use><use xlink:href="#bbburst-shape-10" width="30.028108760506676" opacity="0.13915584530763092" transform="matrix(1.0632869558333664,0.6572068544641124,-0.6572068544641124,1.0632869558333664,778.5017019191389,-399.52949482441807)" fill="none" stroke="#0f1108" filter="url(#bbburst-blur-3)"></use><use xlink:href="#bbburst-shape-10" width="18.404702910245277" opacity="0.7171322073560122" transform="matrix(0.931604813409219,0.3634727935248722,-0.3634727935248722,0.931604813409219,657.304954196589,65.06596920021303)" fill="none" stroke="#ff8b37" filter="url(#bbburst-blur-1)"></use><use xlink:href="#bbburst-shape-10" width="25.93160016703083" opacity="0.5329121585043781" transform="matrix(0.9852232115823164,-0.1712752853140994,0.1712752853140994,0.9852232115823164,187.7039940765882,-156.2327392870201)" fill="none" stroke="#d64550" filter="url(#bbburst-blur-2)"></use><use xlink:href="#bbburst-shape-1" width="37.62151207844663" opacity="0.28497925069505325" transform="matrix(1.1500869041546644,-0.4896938971356902,0.4896938971356902,1.1500869041546644,325.1312955533448,-339.19229662286136)" fill="#fecc3d" filter="url(#bbburst-blur-3)"></use><use xlink:href="#bbburst-shape-1" width="15.144780783716396" opacity="0.9241982265768875" transform="matrix(0.8381299575090229,-0.545470598956464,0.545470598956464,0.8381299575090229,208.90257452585618,62.09823526419649)" fill="#d64550"></use><use xlink:href="#bbburst-shape-4" width="31.066195682286654" opacity="0.1873475470310637" transform="matrix(1.1534372500089838,0.48174942687222067,-0.48174942687222067,1.1534372500089838,579.550450727876,296.8368766921909)" fill="#ff8b37" filter="url(#bbburst-blur-3)"></use><use xlink:href="#bbburst-shape-4" width="30.036539260081504" opacity="0.46199150599232763" transform="matrix(0.932061394495396,-0.36230036832895673,0.36230036832895673,0.932061394495396,16.442672969697156,122.90304916513935)" fill="#d64550" filter="url(#bbburst-blur-2)"></use><use xlink:href="#bbburst-shape-6" width="34.311887531119645" opacity="0.048462876955623124" transform="matrix(1.3188340239235536,-1.1502942307695054,1.1502942307695054,1.3188340239235536,-308.2744828645068,-471.78186814903313)" fill="#0f1108" filter="url(#bbburst-blur-4)"></use><use xlink:href="#bbburst-shape-6" width="17.140621530167095" opacity="0.8091031541321194" transform="matrix(0.9736024263903247,0.22825055383694562,-0.22825055383694562,0.9736024263903247,439.75341414086535,-65.64623117469819)" fill="#0f1108"></use><use xlink:href="#bbburst-shape-10" width="17.069443999621395" opacity="0.8769625933015691" transform="matrix(0.9317951701479877,0.3629845188005716,-0.3629845188005716,0.9317951701479877,566.5477668143927,-22.790618640334856)" fill="none" stroke="#ff8b37"></use><use xlink:href="#bbburst-shape-4" width="23.805467712909454" opacity="0.5962701472933558" transform="matrix(0.9182122702019814,0.39608866034074175,-0.39608866034074175,0.9182122702019814,384.1664920393425,107.58161535278708)" fill="#fecc3d" filter="url(#bbburst-blur-1)"></use><use xlink:href="#bbburst-shape-10" width="37.02060232223615" opacity="0.14376533689063997" transform="matrix(1.1486812074276223,-0.4929822346724273,0.4929822346724273,1.1486812074276223,542.0590358133873,85.62996015601095)" fill="none" stroke="#0f1108" filter="url(#bbburst-blur-3)"></use><use xlink:href="#bbburst-shape-8" width="31.264630817109925" opacity="0.04640069717305095" transform="matrix(1.60211972858688,-0.7040684450198732,0.7040684450198732,1.60211972858688,-150.4041638466047,123.34163093578502)" fill="none" stroke="#ff8b37" filter="url(#bbburst-blur-4)"></use><use xlink:href="#bbburst-shape-1" width="27.28434299960405" opacity="0.16554079289207546" transform="matrix(1.1176022202085152,-0.5598796990291734,0.5598796990291734,1.1176022202085152,72.15828262940857,-404.25278041292887)" fill="#fecc3d" filter="url(#bbburst-blur-3)"></use><use xlink:href="#bbburst-shape-10" width="16.740006316908783" opacity="0.9531799551284394" transform="matrix(0.717306253938917,0.6967580197314688,-0.6967580197314688,0.717306253938917,673.332848309241,128.30512632008077)" fill="none" stroke="#d64550"></use><use xlink:href="#bbburst-shape-1" width="17.512364147910837" opacity="0.825847207393457" transform="matrix(0.9977932932525064,-0.06639686694654881,0.06639686694654881,0.9977932932525064,372.7781621262785,-76.46532759719156)" fill="#0f1108"></use></svg>