<svg xmlns="http://www.w3.org/2000/svg" version="1.1" xmlns:xlink="http://www.w3.org/1999/xlink" xmlns:svgjs="http://svgjs.dev/svgjs" viewBox="0 0 800 800" opacity="1"><defs><symbol id="bbburst-shape-1" viewBox="0 0 194 167"><path d="m97 0 96.129 166.5H.871L97 0Z"></path></symbol><symbol id="bbburst-shape-4" viewBox="0 0 149 143"><path d="M71.647 2.781c.898-2.764 4.808-2.764 5.706 0l15.445 47.534a3 3 0 0 0 2.853 2.073h49.98c2.906 0 4.115 3.719 1.764 5.427L106.96 87.193a2.999 2.999 0 0 0-1.09 3.354l15.445 47.534c.898 2.764-2.266 5.062-4.617 3.354l-40.435-29.378a3 3 0 0 0-3.526 0l-40.435 29.378c-2.351 1.708-5.515-.59-4.617-3.354L43.13 90.547a3 3 0 0 0-1.09-3.354L1.605 57.815c-2.35-1.708-1.142-5.427 1.764-5.427h49.98a3 3 0 0 0 2.853-2.073L71.647 2.781Z"></path></symbol><symbol id="bbburst-shape-6" viewBox="0 0 133 116"><path d="M59.7487 10.2513c-13.6683-13.66839-35.8291-13.66839-49.4974 0-13.66839 13.6683-13.66839 35.8291 0 49.4974l49.4974-49.4974ZM66.5 66.5 41.7513 91.2487 66.5 115.997l24.7487-24.7483L66.5 66.5Zm56.249-6.7513c13.668-13.6683 13.668-35.8291 0-49.4974-13.669-13.66839-35.8294-13.66839-49.4977 0l49.4977 49.4974Zm-112.4977 0 31.5 31.5 49.4974-49.4974-31.5-31.5-49.4974 49.4974Zm80.9974 31.5 31.5003-31.5-49.4977-49.4974-31.5 31.5 49.4974 49.4974Z"></path></symbol><symbol id="bbburst-shape-8" viewBox="0 0 87 168"><path d="m12 12 31.2546 18.0749c16.4102 9.4902 20.014 31.6325 7.4603 45.8369L36.3296 92.1884c-12.5684 14.2206-8.9394 36.3916 7.5068 45.8636L75 156" stroke-width="14" stroke-linecap="round" stroke-linejoin="round"></path></symbol><symbol id="bbburst-shape-10" viewBox="0 0 145 145"><circle cx="72.5" cy="72.5" r="61.5" fill="none" stroke-width="22"></circle></symbol></defs><use xlink:href="#bbburst-shape-4" width="14.236175249808314" opacity="0.8303192648426583" transform="matrix(0.7472110158148799,-0.6645868625280635,0.6645868625280635,0.7472110158148799,57.55836386169864,133.18829786034888)" fill="#d64550"></use><use xlink:href="#bbburst-shape-4" width="21.679854052803947" opacity="0.7401280198067789" transform="matrix(0.7179140682821279,0.6961317336270516,-0.6961317336270516,0.7179140682821279,716.781192664234,212.7643933511764)" fill="#fecc3d"></use><use xlink:href="#bbburst-shape-1" width="16.401686611675213" opacity="0.926810500325004" transform="matrix(0.8477612000162313,0.5303781177113546,-0.5303781177113546,0.8477612000162313,637.2788869288937,63.97245935160197)" fill="#22c55e"></use><use xlink:href="#bbburst-shape-6" width="35.20839578307298" opacity="0.1520872496004929" transform="matrix(0.8385391181209395,0.5448413965375218,-0.5448413965375218,0.8385391181209395,966.8888236129953,170.3210266865907)" fill="#d64550"></use><use xlink:href="#bbburst-shape-1" width="20.135059024894893" opacity="0.8268239509718478" transform="matrix(0.8311137886287872,0.5561023919667166,-0.5561023919667166,0.8311137886287872,689.5382844972485,81.36512017451582)" fill="#ff8b37"></use><use xlink:href="#bbburst-shape-6" width="15.026275089659759" opacity="0.8721248186682666" transform="matrix(0.770983008166859,0.6368557145209431,-0.6368557145209431,0.770983008166859,618.5734574119397,135.69523779224636)" fill="#0f1108"></use><use xlink:href="#bbburst-shape-1" width="10.878372988491224" opacity="0.8992665607555462" transform="matrix(0.9797038813830594,-0.20045025518309567,0.20045025518309567,0.9797038813830594,343.24685605229035,-25.82152502024354)" fill="#22c55e"></use><use xlink:href="#bbburst-shape-10" width="19.82880491903667" opacity="0.6789997926455751" transform="matrix(0.994949665897703,-0.10037510811973857,0.10037510811973857,0.994949665897703,282.47665953925093,-124.68893149870627)" fill="none" stroke="#d64550"></use><use xlink:href="#bbburst-shape-6" width="20.03254875717578" opacity="0.5946203688289042" transform="matrix(0.908608146329454,-0.41764965751662425,0.41764965751662425,0.908608146329454,402.2025025055764,79.00181746939404)" fill="#fecc3d"></use><use xlink:href="#bbburst-shape-6" width="32.62412205916375" opacity="0.05658416010264955" transform="matrix(0.9233892184958814,0.38386501685561986,-0.38386501685561986,0.9233892184958814,318.83447473919193,-338.9158840220589)" fill="#0f1108"></use><use xlink:href="#bbburst-shape-4" width="40.27320547970095" opacity="0.20949311203223542" transform="matrix(0.8087655367928799,-0.5881311983699937,0.5881311983699937,0.8087655367928799,395.6566304868908,344.1939677811356)" fill="#0f1108"></use><use xlink:href="#bbburst-shape-8" width="29.1989950814135" opacity="0.46917246539286006" transform="matrix(0.9976447750517471,-0.06859229411492913,0.06859229411492913,0.9976447750517471,596.3276461236401,18.036522752650626)" fill="none" stroke="#fecc3d"></use><use xlink:href="#bbburst-shape-10" width="32.82833343405976" opacity="0.052509354830699295" transform="matrix(0.9682674309216651,-0.24991635043821842,0.24991635043821842,0.9682674309216651,638.0387844691897,254.59301358356595)" fill="none" stroke="#0f1108"></use><use xlink:href="#bbburst-shape-4" width="22.25238240111131" opacity="0.5823405109859999" transform="matrix(0.8630486746653753,0.5051207629451984,-0.5051207629451984,0.8630486746653753,522.4792933289204,223.62014855498967)" fill="#0f1108"></use><use xlink:href="#bbburst-shape-6" width="45.516691979827925" opacity="0.26155185656023683" transform="matrix(0.7206140624686092,0.6933364067842446,-0.6933364067842446,0.7206140624686092,948.3379930777903,262.7792340357196)" fill="#fecc3d"></use><use xlink:href="#bbburst-shape-8" width="25.64759685700993" opacity="0.6003296232480994" transform="matrix(0.8921778800449033,0.45168421530819763,-0.45168421530819763,0.8921778800449033,418.7225050603168,135.79128422668578)" fill="none" stroke="#22c55e"></use><use xlink:href="#bbburst-shape-10" width="32.26039570510406" opacity="0.20142763821420584" transform="matrix(0.9679875132497855,0.2509983549597414,-0.2509983549597414,0.9679875132497855,339.23162567923066,-319.80403966102034)" fill="none" stroke="#d64550"></use><use xlink:href="#bbburst-shape-10" width="28.10921521751549" opacity="0.46079512843523995" transform="matrix(0.9701430479535657,-0.24253343379288064,0.24253343379288064,0.9701430479535657,106.4518079029197,-144.09405346848334)" fill="none" stroke="#ff8b37"></use><use xlink:href="#bbburst-shape-10" width="13.260991176729888" opacity="0.9565001436245099" transform="matrix(0.9987222950715386,-0.05053491196230977,0.05053491196230977,0.9987222950715386,373.7378952589232,-18.720367725997733)" fill="none" stroke="#fecc3d"></use><use xlink:href="#bbburst-shape-6" width="30.07787200194957" opacity="0.33164100883778425" transform="matrix(0.9999156164555926,-0.01299076472854405,0.01299076472854405,0.9999156164555926,86.63553995336676,-67.09084818098694)" fill="#d64550"></use><use xlink:href="#bbburst-shape-6" width="30.543080358350565" opacity="0.3801103174909658" transform="matrix(0.8455950113684988,0.5338249495374944,-0.5338249495374944,0.8455950113684988,560.5075539441239,329.6617577599924)" fill="#fecc3d"></use><use xlink:href="#bbburst-shape-4" width="33.94389564095566" opacity="0.5941678671091687" transform="matrix(0.999463907148025,0.03273985809993805,-0.03273985809993805,0.999463907148025,421.24624793349096,-181.19981758947608)" fill="#ff8b37"></use><use xlink:href="#bbburst-shape-10" width="26.27862211128483" opacity="0.4557082332695186" transform="matrix(0.92784783826554,0.37295896426545966,-0.37295896426545966,0.92784783826554,322.8489336637422,142.8467554065731)" fill="none" stroke="#22c55e"></use><use xlink:href="#bbburst-shape-8" width="17.16207063042655" opacity="0.8553792810544238" transform="matrix(0.7957546252038613,-0.6056191678494516,0.6056191678494516,0.7957546252038613,159.37343589324126,22.3665134802593)" fill="none" stroke="#fecc3d"></use><use xlink:href="#bbburst-shape-6" width="20.728348971773528" opacity="0.6984102439442639" transform="matrix(0.9168994231368313,0.3991183381546708,-0.3991183381546708,0.9168994231368313,532.1344609183004,-105.41118987977148)" fill="#22c55e"></use><use xlink:href="#bbburst-shape-4" width="26.79874463161607" opacity="0.5002000862292524" transform="matrix(0.8329307258153746,-0.5533772727467882,0.5533772727467882,0.8329307258153746,17.536338734039674,241.87811989335643)" fill="#0f1108"></use><use xlink:href="#bbburst-shape-1" width="29.939484309569885" opacity="0.5625171026266428" transform="matrix(0.8014766619335321,-0.5980260532584535,0.5980260532584535,0.8014766619335321,302.86620613462867,-34.18348573661302)" fill="#fecc3d"></use><use xlink:href="#bbburst-shape-8" width="21.209295928632493" opacity="0.7349800209684261" transform="matrix(0.8207866108281467,-0.5712349249522864,0.5712349249522864,0.8207866108281467,51.72011719597799,34.34322157368217)" fill="none" stroke="#22c55e"></use><use xlink:href="#bbburst-shape-10" width="32.56024740914039" opacity="0.17847148610012575" transform="matrix(0.9999144133947986,-0.01308303807744752,0.01308303807744752,0.9999144133947986,320.37945164103127,365.3396586106616)" fill="none" stroke="#0f1108"></use><use xlink:href="#bbburst-shape-6" width="27.11447730424936" opacity="0.42522105688261236" transform="matrix(0.9553073554856184,0.29561437136085655,-0.29561437136085655,0.9553073554856184,571.8400570610755,-236.07386271089163)" fill="#0f1108"></use><use xlink:href="#bbburst-shape-4" width="40.79765058943581" opacity="0.2437944633830994" transform="matrix(0.9433117234999351,-0.33190810822813915,0.33190810822813915,0.9433117234999351,532.4575468705193,-157.29877050013036)" fill="#ff8b37"></use><use xlink:href="#bbburst-shape-6" width="36.38032652475474" opacity="0.3021815877073012" transform="matrix(0.8087978312720188,-0.588086786222645,0.588086786222645,0.8087978312720188,-86.78543144587621,293.3699384479074)" fill="#22c55e"></use><use xlink:href="#bbburst-shape-6" width="28.144263134553178" opacity="0.07253017623618285" transform="matrix(0.9996265037478884,-0.027328611468069842,0.027328611468069842,0.9996265037478884,173.27173464667052,365.9047619818765)" fill="#22c55e"></use><use xlink:href="#bbburst-shape-6" width="17.536873775055618" opacity="0.7262638525965726" transform="matrix(0.928469804234,-0.37140789251936696,0.37140789251936696,0.928469804234,136.6783135088055,93.5646279886763)" fill="#fecc3d"></use><use xlink:href="#bbburst-shape-1" width="32.64893784735587" opacity="0.5016745441591157" transform="matrix(0.9126242776976982,-0.40879937347891665,0.40879937347891665,0.9126242776976982,434.8338209249762,-27.746316462538687)" fill="#fecc3d"></use><use xlink:href="#bbburst-shape-8" width="36.39118050013585" opacity="0.19507939797001073" transform="matrix(0.9969232114996476,0.07838437582343198,-0.07838437582343198,0.9969232114996476,52.116743736828866,-28.618173445464038)" fill="none" stroke="#fecc3d"></use><use xlink:href="#bbburst-shape-4" width="39.9914496236346" opacity="-0.08629657927065737" transform="matrix(0.8253095856568662,0.564680518366706,-0.564680518366706,0.8253095856568662,271.91172329746456,412.3015136382823)" fill="#ff8b37"></use><use xlink:href="#bbburst-shape-8" width="29.710233765842887" opacity="0.2962997977300168" transform="matrix(0.967467636307002,-0.25299480765134774,0.25299480765134774,0.967467636307002,-2.7517806408869347,150.20010660422543)" fill="none" stroke="#0f1108"></use><use xlink:href="#bbburst-shape-6" width="16.93118362093877" opacity="0.7267700566339627" transform="matrix(0.8906694956101256,0.4546513494861798,-0.4546513494861798,0.8906694956101256,486.2332879266598,-45.896568576735376)" fill="#d64550"></use><use xlink:href="#bbburst-shape-6" width="25.976318988518813" opacity="0.5730206710910927" transform="matrix(0.9995725681135564,-0.029234929021114502,0.029234929021114502,0.9995725681135564,258.87989044402775,-152.28536520023616)" fill="#0f1108"></use><use xlink:href="#bbburst-shape-6" width="38.57858524808865" opacity="0.1692422601927812" transform="matrix(0.8570102279855103,0.5152993975624498,-0.5152993975624498,0.8570102279855103,833.4914260532257,-236.06027447592123)" fill="#ff8b37"></use><use xlink:href="#bbburst-shape-6" width="22.916064200019548" opacity="0.797938456090409" transform="matrix(0.9999941108792658,-0.0034319392166274787,0.0034319392166274787,0.9999941108792658,447.7630889572008,-67.75358905641502)" fill="#ff8b37"></use><use xlink:href="#bbburst-shape-4" width="38.93413493593343" opacity="0.13920678560717725" transform="matrix(0.9676588439079007,-0.2522624859284967,0.2522624859284967,0.9676588439079007,13.406599801670879,-262.8875466001494)" fill="#fecc3d"></use><use xlink:href="#bbburst-shape-10" width="30.521073411446316" opacity="0.321830407954917" transform="matrix(0.7269210949181791,-0.6867209926621988,0.6867209926621988,0.7269210949181791,414.30662026164754,175.20574788620814)" fill="none" stroke="#ff8b37"></use><use xlink:href="#bbburst-shape-1" width="10.90276437340676" opacity="0.9135858518438859" transform="matrix(0.9603357693724206,-0.27884621221003,0.27884621221003,0.9603357693724206,244.62420816043544,22.059863068792254)" fill="#0f1108"></use><use xlink:href="#bbburst-shape-4" width="33.08731788898731" opacity="0.4317896095087176" transform="matrix(0.9350103677292984,-0.3546203776416723,0.3546203776416723,0.9350103677292984,467.1657759875072,154.33320837578384)" fill="#0f1108"></use><use xlink:href="#bbburst-shape-1" width="24.172278092536718" opacity="0.6925990825997723" transform="matrix(0.985397371694108,0.17027043154448124,-0.17027043154448124,0.985397371694108,571.135162581792,-73.1514254705395)" fill="#ff8b37"></use><use xlink:href="#bbburst-shape-6" width="30.31445586115285" opacity="0.6135482647434383" transform="matrix(0.8943035785932526,0.44746073494252214,-0.44746073494252214,0.8943035785932526,416.474684557972,-54.252873621928416)" fill="#0f1108"></use><use xlink:href="#bbburst-shape-4" width="41.64793286935064" opacity="0.24464217807587074" transform="matrix(0.7670483601827606,0.6415892869592961,-0.6415892869592961,0.7670483601827606,510.2539131851905,393.7590008038141)" fill="#d64550"></use><use xlink:href="#bbburst-shape-6" width="31.60632874996582" opacity="0.46233830148122224" transform="matrix(0.9101611994570269,0.41425425888329265,-0.41425425888329265,0.9101611994570269,330.21052306563865,-68.84585175228494)" fill="#d64550"></use><use xlink:href="#bbburst-shape-4" width="39.55607204860374" opacity="0.24854556073026612" transform="matrix(0.8306687035970685,-0.556767011293203,0.556767011293203,0.8306687035970685,193.94724020292142,415.3083762725525)" fill="#ff8b37"></use><use xlink:href="#bbburst-shape-10" width="21.928676921239315" opacity="0.7483634355646147" transform="matrix(0.9957964839884945,0.0915934630645218,-0.0915934630645218,0.9957964839884945,312.59262677580614,5.665847857411336)" fill="none" stroke="#0f1108"></use><use xlink:href="#bbburst-shape-8" width="40.55953559351367" opacity="0.048361532010208874" transform="matrix(0.9101806029902845,-0.41421162458366867,0.41421162458366867,0.9101806029902845,-139.9024282622401,-194.04654634343473)" fill="none" stroke="#22c55e"></use><use xlink:href="#bbburst-shape-8" width="13.861381110345725" opacity="0.8544954372156557" transform="matrix(0.8253090855692193,0.5646812492697972,-0.5646812492697972,0.8253090855692193,681.5987543185944,43.34396816503215)" fill="none" stroke="#0f1108"></use><use xlink:href="#bbburst-shape-1" width="22.872564175234075" opacity="0.6550415473332911" transform="matrix(0.9516264016484222,-0.3072575331634295,0.3072575331634295,0.9516264016484222,115.06459956212407,58.217039219484775)" fill="#ff8b37"></use><use xlink:href="#bbburst-shape-10" width="24.149472556540946" opacity="0.6797466730670763" transform="matrix(0.9861456822124399,0.16588156453856315,-0.16588156453856315,0.9861456822124399,528.7663804601553,-119.93271477153559)" fill="none" stroke="#ff8b37"></use><use xlink:href="#bbburst-shape-8" width="32.16536940862473" opacity="0.19393935945963459" transform="matrix(0.8879615693191217,-0.45991765720868194,0.45991765720868194,0.8879615693191217,-155.4858641232924,115.07784888768504)" fill="none" stroke="#0f1108"></use><use xlink:href="#bbburst-shape-6" width="26.787844826269332" opacity="0.5299706886453046" transform="matrix(0.9902854688782525,-0.13904923634662483,0.13904923634662483,0.9902854688782525,314.30991512640713,216.5929437847596)" fill="#fecc3d"></use><use xlink:href="#bbburst-shape-10" width="34.657419340945545" opacity="0.321907264643177" transform="matrix(0.7365126259109951,-0.67642379605813,0.67642379605813,0.7365126259109951,-78.14718172759419,-117.74228663008427)" fill="none" stroke="#fecc3d"></use><use xlink:href="#bbburst-shape-6" width="25.009424102695068" opacity="0.5310583263960547" transform="matrix(0.8257620165009981,0.5640186983639862,-0.5640186983639862,0.8257620165009981,409.09976327114146,107.58870268799336)" fill="#22c55e"></use><use xlink:href="#bbburst-shape-6" width="19.536705112558625" opacity="0.8005863778071249" transform="matrix(0.9514728511290499,-0.30773269823721505,0.30773269823721505,0.9514728511290499,238.74560062620094,-62.54914152344662)" fill="#ff8b37"></use><use xlink:href="#bbburst-shape-6" width="33.04807961020628" opacity="0.14742781722767995" transform="matrix(0.873084033424893,0.48756975970472183,-0.48756975970472183,0.873084033424893,940.792749822007,-89.40671616218526)" fill="#fecc3d"></use><use xlink:href="#bbburst-shape-10" width="15.843332327064186" opacity="0.8183355464625488" transform="matrix(0.8072369166394001,-0.5902275496912307,0.5902275496912307,0.8072369166394001,161.43134098368864,163.4359265370377)" fill="none" stroke="#ff8b37"></use><use xlink:href="#bbburst-shape-1" width="10.941553936717971" opacity="0.9017194929849246" transform="matrix(0.7222729683632755,0.6916080965197724,-0.6916080965197724,0.7222729683632755,645.6613677350724,72.30536943876677)" fill="#fecc3d"></use><use xlink:href="#bbburst-shape-4" width="22.534838327410256" opacity="0.5840721018028139" transform="matrix(0.8267734777233606,0.5625349913856201,-0.5625349913856201,0.8267734777233606,681.9054295126813,238.03143668697442)" fill="#ff8b37"></use><use xlink:href="#bbburst-shape-6" width="34.47814692831982" opacity="0.15117630904058765" transform="matrix(0.887424267951886,-0.46095354283274487,0.46095354283274487,0.887424267951886,-158.21886704632806,-78.74684056603382)" fill="#fecc3d"></use><use xlink:href="#bbburst-shape-4" width="30.86532812381563" opacity="0.43835665555528813" transform="matrix(0.8409995338534194,-0.5410358435984914,0.5410358435984914,0.8409995338534194,233.7007680569514,316.71472095028736)" fill="#22c55e"></use><use xlink:href="#bbburst-shape-8" width="15.419033359152124" opacity="0.9128624684953384" transform="matrix(0.9268540087195768,-0.37542195796257144,0.37542195796257144,0.9268540087195768,248.793162954922,70.8860245459432)" fill="none" stroke="#0f1108"></use><use xlink:href="#bbburst-shape-4" width="30.535705546637665" opacity="0.5365776038861221" transform="matrix(0.926486198204084,-0.3763287452977024,0.3763287452977024,0.926486198204084,342.32020540857246,-143.8280705862723)" fill="#22c55e"></use><use xlink:href="#bbburst-shape-8" width="27.01646475255329" opacity="0.5763170363518901" transform="matrix(0.7587815846454088,0.6513451518227509,-0.6513451518227509,0.7587815846454088,808.9113767833112,193.46656782648898)" fill="none" stroke="#22c55e"></use><use xlink:href="#bbburst-shape-8" width="30.796618778761925" opacity="0.4855199828125062" transform="matrix(0.8007710818597935,-0.5989705121765977,0.5989705121765977,0.8007710818597935,-82.15228807584197,64.58028883138468)" fill="none" stroke="#22c55e"></use><use xlink:href="#bbburst-shape-6" width="43.492071125537684" opacity="0.04690261660088346" transform="matrix(0.9445611085084133,-0.3283356701507734,0.3283356701507734,0.9445611085084133,-98.74382241849082,281.5691211447447)" fill="#fecc3d"></use><use xlink:href="#bbburst-shape-8" width="29.786128968400497" opacity="0.3735815953060647" transform="matrix(0.9920284555899787,-0.12601405992888987,0.12601405992888987,0.9920284555899787,55.340220860507486,41.83542787029711)" fill="none" stroke="#0f1108"></use><use xlink:href="#bbburst-shape-4" width="38.59932235551507" opacity="0.34482267178877146" transform="matrix(0.7573633943919342,0.6529936361367755,-0.6529936361367755,0.7573633943919342,797.9275512246645,-168.52689332834913)" fill="#22c55e"></use><use xlink:href="#bbburst-shape-4" width="32.49309430161988" opacity="0.12469213082177455" transform="matrix(0.9703614491094186,-0.24165814300840194,0.24165814300840194,0.9703614491094186,-72.90508990711052,174.55382074670592)" fill="#d64550"></use><use xlink:href="#bbburst-shape-4" width="36.36252057020132" opacity="0.5601814408806638" transform="matrix(0.9188288064177131,0.3946563372061832,-0.3946563372061832,0.9188288064177131,494.07621152522415,-166.9167762849593)" fill="#0f1108"></use><use xlink:href="#bbburst-shape-10" width="19.411459826639494" opacity="0.8373736179040345" transform="matrix(0.9881294710336634,-0.15362339820070556,0.15362339820070556,0.9881294710336634,257.54644108857985,-9.750545894792594)" fill="none" stroke="#fecc3d"></use><use xlink:href="#bbburst-shape-10" width="10.172770930397405" opacity="0.9707799177781075" transform="matrix(0.9760242174292054,0.21766195577479094,-0.21766195577479094,0.9760242174292054,474.4579713958102,19.18327686169289)" fill="none" stroke="#0f1108"></use><use xlink:href="#bbburst-shape-1" width="35.43704408243612" opacity="0.06551515244844153" transform="matrix(0.9990917049036486,0.04261179640335132,-0.04261179640335132,0.9990917049036486,626.450946922261,353.56960171621404)" fill="#0f1108"></use><use xlink:href="#bbburst-shape-10" width="36.13312650199109" opacity="0.2135989098356763" transform="matrix(0.9741340307259919,0.22597099411546667,-0.22597099411546667,0.9741340307259919,543.2301844620386,-340.5350089053055)" fill="none" stroke="#22c55e"></use><use xlink:href="#bbburst-shape-4" width="30.936573475640394" opacity="0.03188224689471941" transform="matrix(0.8885881509879844,0.4587058947994402,-0.4587058947994402,0.8885881509879844,924.0891447228478,-215.92085478452387)" fill="#ff8b37"></use><use xlink:href="#bbburst-shape-8" width="18.80220023004996" opacity="0.75004142896239" transform="matrix(0.9687653211160772,0.24797933906449518,-0.24797933906449518,0.9687653211160772,514.193213261896,-99.70468258126436)" fill="none" stroke="#0f1108"></use><use xlink:href="#bbburst-shape-6" width="18.8388528229058" opacity="0.7446368635024962" transform="matrix(0.911553817990391,-0.411180783727962,0.411180783727962,0.911553817990391,191.24483441938742,148.48016551443266)" fill="#0f1108"></use><use xlink:href="#bbburst-shape-8" width="32.53865774486941" opacity="0.4042710049025078" transform="matrix(0.9767100709288935,0.21456336440799,-0.21456336440799,0.9767100709288935,679.3371150493749,-161.55634229176172)" fill="none" stroke="#ff8b37"></use><use xlink:href="#bbburst-shape-10" width="26.05968604169539" opacity="0.6308691275042173" transform="matrix(0.7553877564572699,0.6552780611270702,-0.6552780611270702,0.7553877564572699,757.7273913233162,217.644628496466)" fill="none" stroke="#22c55e"></use><use xlink:href="#bbburst-shape-10" width="35.885630325843636" opacity="0.15265642547438585" transform="matrix(0.830858661827702,-0.5564834984668282,0.5564834984668282,0.830858661827702,276.95631966384775,441.3619789327263)" fill="none" stroke="#0f1108"></use><use xlink:href="#bbburst-shape-6" width="46.1901043347594" opacity="-0.08082651292682264" transform="matrix(0.9879760424181775,0.15460704902337283,-0.15460704902337283,0.9879760424181775,780.717930375482,347.3663844396223)" fill="#0f1108"></use><use xlink:href="#bbburst-shape-10" width="29.36174770652496" opacity="0.18141160005224544" transform="matrix(0.9229130927815786,-0.38500834169189263,0.38500834169189263,0.9229130927815786,193.55819898714222,-329.8191806110198)" fill="none" stroke="#22c55e"></use><use xlink:href="#bbburst-shape-8" width="19.853467338734212" opacity="0.7619895288986291" transform="matrix(0.8555911876249632,-0.5176521222389656,0.5176521222389656,0.8555911876249632,289.68236275524254,42.98453191534287)" fill="none" stroke="#0f1108"></use><use xlink:href="#bbburst-shape-10" width="39.5058085366633" opacity="0.34045611741705073" transform="matrix(0.9993728702500848,0.03540997328588585,-0.03540997328588585,0.9993728702500848,682.2898521906991,-72.69864194684078)" fill="none" stroke="#d64550"></use><use xlink:href="#bbburst-shape-10" width="42.78740056067616" opacity="0.4361804185607371" transform="matrix(0.9006746093396797,-0.43449424402495296,0.43449424402495296,0.9006746093396797,368.16835486742696,244.92498310822918)" fill="none" stroke="#d64550"></use><use xlink:href="#bbburst-shape-10" width="21.425824336699822" opacity="0.75437224752549" transform="matrix(0.997658355448269,0.06839448665101192,-0.06839448665101192,0.997658355448269,501.30275256104636,71.30054233990774)" fill="none" stroke="#ff8b37"></use><use xlink:href="#bbburst-shape-6" width="36.5678507181657" opacity="-0.07742573223916493" transform="matrix(0.884827025419625,-0.4659196659157652,0.4659196659157652,0.884827025419625,527.5880309879169,-300.49332030602744)" fill="#0f1108"></use><use xlink:href="#bbburst-shape-4" width="22.494753553497006" opacity="0.7114589184280826" transform="matrix(0.8038720494388834,0.5948022596888225,-0.5948022596888225,0.8038720494388834,752.3871533247745,111.80475095586706)" fill="#22c55e"></use><use xlink:href="#bbburst-shape-1" width="29.32286049781543" opacity="0.39613111286711566" transform="matrix(0.8005004319983899,-0.5993321769856772,0.5993321769856772,0.8005004319983899,13.559553900252126,324.4557719121733)" fill="#0f1108"></use><use xlink:href="#bbburst-shape-6" width="33.986039253501744" opacity="0.3097430102003689" transform="matrix(0.8610067153837844,0.5085935863378804,-0.5085935863378804,0.8610067153837844,515.3690668718606,-254.85456675696554)" fill="#fecc3d"></use><use xlink:href="#bbburst-shape-1" width="18.847716100852477" opacity="0.7856332235502391" transform="matrix(0.9999893234014533,0.004620939634289152,-0.004620939634289152,0.9999893234014533,328.5261679880043,72.25195305983812)" fill="#fecc3d"></use><use xlink:href="#bbburst-shape-1" width="13.870643060631881" opacity="0.8257609422943772" transform="matrix(0.9997785724223772,-0.02104295903796365,0.02104295903796365,0.9997785724223772,326.80104178002375,-52.67507161506035)" fill="#d64550"></use><use xlink:href="#bbburst-shape-8" width="37.3144711770355" opacity="0.1561369795477302" transform="matrix(0.8541408586959158,0.5200417228513531,-0.5200417228513531,0.8541408586959158,346.63925647459683,338.39910175190204)" fill="none" stroke="#0f1108"></use><use xlink:href="#bbburst-shape-10" width="17.536631571691792" opacity="0.8538062235339487" transform="matrix(0.9563859173095122,0.29210610601636344,-0.29210610601636344,0.9563859173095122,549.7037394755585,66.13496297163186)" fill="none" stroke="#d64550"></use><use xlink:href="#bbburst-shape-10" width="49.0269025996282" opacity="0.27975770296721536" transform="matrix(0.8703670171397947,0.4924035494136657,-0.4924035494136657,0.8703670171397947,301.17916189019314,-132.62888929517428)" fill="none" stroke="#fecc3d"></use><use xlink:href="#bbburst-shape-6" width="29.318616318271246" opacity="0.43356983868826693" transform="matrix(0.9938939662299955,0.11033940316862563,-0.11033940316862563,0.9938939662299955,319.2340464003708,-228.95207221935667)" fill="#d64550"></use><use xlink:href="#bbburst-shape-4" width="25.55664195877972" opacity="0.6630741086033487" transform="matrix(0.9278598835296713,0.3729289966418606,-0.3729289966418606,0.9278598835296713,444.29128685583436,143.84433870307828)" fill="#fecc3d"></use><use xlink:href="#bbburst-shape-8" width="37.014189558346274" opacity="0.10747225131155935" transform="matrix(0.9062260937389264,-0.42279340939362653,0.42279340939362653,0.9062260937389264,396.9990951347054,-312.2473818871733)" fill="none" stroke="#0f1108"></use><use xlink:href="#bbburst-shape-8" width="22.200131204083938" opacity="0.6236605108739677" transform="matrix(0.7145498270740526,0.6995845514506746,-0.6995845514506746,0.7145498270740526,504.69976304904674,79.51328971875745)" fill="none" stroke="#22c55e"></use><use xlink:href="#bbburst-shape-4" width="47.175430957076316" opacity="-0.08943662845483713" transform="matrix(0.9493323886832428,0.31427379113914117,-0.31427379113914117,0.9493323886832428,160.27166635639367,-337.3492888466172)" fill="#ff8b37"></use><use xlink:href="#bbburst-shape-4" width="21.164648350000256" opacity="0.67258969585927" transform="matrix(0.9699267241269557,-0.2433971031552192,0.2433971031552192,0.9699267241269557,295.69573775698075,161.9210191759654)" fill="#ff8b37"></use><use xlink:href="#bbburst-shape-4" width="29.737161613879493" opacity="0.40819951380584674" transform="matrix(0.8510233223019061,0.5251278938489423,-0.5251278938489423,0.8510233223019061,589.6022915699832,-214.39080579961154)" fill="#ff8b37"></use><use xlink:href="#bbburst-shape-8" width="24.795765479015984" opacity="0.6390037887502982" transform="matrix(0.8915414525429743,-0.4529391111369865,0.4529391111369865,0.8915414525429743,367.3461107001317,18.58059185515998)" fill="none" stroke="#fecc3d"></use><use xlink:href="#bbburst-shape-8" width="28.48955011864864" opacity="0.1972983169194451" transform="matrix(0.9101289883032553,0.4143250229591414,-0.4143250229591414,0.9101289883032553,913.7710717705289,17.727651129580806)" fill="none" stroke="#ff8b37"></use><use xlink:href="#bbburst-shape-1" width="39.41290787768424" opacity="0.2907393052786358" transform="matrix(0.8646473917263352,-0.5023792272584979,0.5023792272584979,0.8646473917263352,327.33795537881764,348.2588547712948)" fill="#0f1108"></use></svg>