<svg xmlns="http://www.w3.org/2000/svg" version="1.1" xmlns:xlink="http://www.w3.org/1999/xlink" xmlns:svgjs="http://svgjs.dev/svgjs" width="1440" height="4000" preserveAspectRatio="none" viewBox="0 0 1440 4000"><g mask="url(&quot;#SvgjsMask30709&quot;)" fill="none"><rect width="1440" height="4000" x="0" y="0" fill="rgba(255, 255, 255, 1)"></rect><path d="M13.84 3201.01a5.6 5.6 0 1 0-1.69-11.07 5.6 5.6 0 1 0 1.69 11.07zM11.42 3185.19a5.6 5.6 0 1 0-1.69-11.07 5.6 5.6 0 1 0 1.69 11.07zM9 3169.38a5.6 5.6 0 1 0-1.69-11.07 5.6 5.6 0 1 0 1.69 11.07zM6.58 3153.56a5.6 5.6 0 1 0-1.69-11.07 5.6 5.6 0 1 0 1.69 11.07z" stroke="rgba(0, 0, 0, 1)" stroke-width="2.59" stroke-dasharray="2, 2"></path><path d="M215.76 667.77a5.6 5.6 0 1 0 11.07 1.7 5.6 5.6 0 1 0-11.07-1.7zM231.58 670.2a5.6 5.6 0 1 0 11.07 1.71 5.6 5.6 0 1 0-11.07-1.71zM247.39 672.64a5.6 5.6 0 1 0 11.07 1.7 5.6 5.6 0 1 0-11.07-1.7zM263.21 675.07a5.6 5.6 0 1 0 11.07 1.7 5.6 5.6 0 1 0-11.07-1.7zM181.7 678.71a5.6 5.6 0 1 0 11.07 1.71 5.6 5.6 0 1 0-11.07-1.71zM197.52 681.15a5.6 5.6 0 1 0 11.07 1.7 5.6 5.6 0 1 0-11.07-1.7zM213.33 683.58a5.6 5.6 0 1 0 11.07 1.71 5.6 5.6 0 1 0-11.07-1.71zM229.14 686.02a5.6 5.6 0 1 0 11.07 1.7 5.6 5.6 0 1 0-11.07-1.7z" stroke="rgba(214, 69, 80, 1)" stroke-width="1.76" stroke-dasharray="3, 3"></path><path d="M736.1 2563.64a5.6 5.6 0 1 0-11.2-0.29 5.6 5.6 0 1 0 11.2 0.29zM720.1 2563.23a5.6 5.6 0 1 0-11.2-0.3 5.6 5.6 0 1 0 11.2 0.3zM704.11 2562.81a5.6 5.6 0 1 0-11.2-0.29 5.6 5.6 0 1 0 11.2 0.29zM688.11 2562.39a5.6 5.6 0 1 0-11.19-0.29 5.6 5.6 0 1 0 11.19 0.29zM768.5 2548.48a5.6 5.6 0 1 0-11.2-0.29 5.6 5.6 0 1 0 11.2 0.29zM752.51 2548.06a5.6 5.6 0 1 0-11.2-0.29 5.6 5.6 0 1 0 11.2 0.29zM736.51 2547.65a5.6 5.6 0 1 0-11.2-0.29 5.6 5.6 0 1 0 11.2 0.29zM720.52 2547.23a5.6 5.6 0 1 0-11.2-0.29 5.6 5.6 0 1 0 11.2 0.29z" fill="rgba(214, 69, 80, 1)"></path><path d="M1350.91 2033.25L1338.2 2031.65 1336.98 2018.9 1324.27 2017.3 1323.04 2004.56 1310.34 2002.96 1309.11 1990.21" stroke="#d3b714" stroke-width="2.49" stroke-dasharray="2, 2"></path><path d="M1161.62 1333.29a5.6 5.6 0 1 0-8.88-6.83 5.6 5.6 0 1 0 8.88 6.83zM1148.94 1323.53a5.6 5.6 0 1 0-8.88-6.83 5.6 5.6 0 1 0 8.88 6.83zM1136.26 1313.77a5.6 5.6 0 1 0-8.88-6.83 5.6 5.6 0 1 0 8.88 6.83zM1123.58 1304.02a5.6 5.6 0 1 0-8.88-6.84 5.6 5.6 0 1 0 8.88 6.84zM1196.74 1340.12a5.6 5.6 0 1 0-8.88-6.83 5.6 5.6 0 1 0 8.88 6.83zM1184.06 1330.37a5.6 5.6 0 1 0-8.88-6.83 5.6 5.6 0 1 0 8.88 6.83zM1171.38 1320.61a5.6 5.6 0 1 0-8.88-6.83 5.6 5.6 0 1 0 8.88 6.83zM1158.7 1310.85a5.6 5.6 0 1 0-8.88-6.83 5.6 5.6 0 1 0 8.88 6.83zM1231.86 1346.96a5.6 5.6 0 1 0-8.88-6.83 5.6 5.6 0 1 0 8.88 6.83zM1219.18 1337.2a5.6 5.6 0 1 0-8.88-6.83 5.6 5.6 0 1 0 8.88 6.83zM1206.5 1327.44a5.6 5.6 0 1 0-8.88-6.83 5.6 5.6 0 1 0 8.88 6.83zM1193.82 1317.69a5.6 5.6 0 1 0-8.88-6.83 5.6 5.6 0 1 0 8.88 6.83z" fill="rgba(214, 69, 80, 1)"></path><path d="M863.12 2743.79a5.6 5.6 0 1 0-9.07 6.58 5.6 5.6 0 1 0 9.07-6.58zM850.17 2753.18a5.6 5.6 0 1 0-9.07 6.58 5.6 5.6 0 1 0 9.07-6.58zM837.22 2762.58a5.6 5.6 0 1 0-9.07 6.58 5.6 5.6 0 1 0 9.07-6.58zM824.27 2771.98a5.6 5.6 0 1 0-9.07 6.57 5.6 5.6 0 1 0 9.07-6.57zM879.62 2712.05a5.6 5.6 0 1 0-9.06 6.57 5.6 5.6 0 1 0 9.06-6.57zM866.67 2721.44a5.6 5.6 0 1 0-9.06 6.58 5.6 5.6 0 1 0 9.06-6.58zM853.72 2730.84a5.6 5.6 0 1 0-9.06 6.58 5.6 5.6 0 1 0 9.06-6.58zM840.77 2740.23a5.6 5.6 0 1 0-9.06 6.58 5.6 5.6 0 1 0 9.06-6.58z" fill="#d3b714"></path><rect width="368.4" height="368.4" clip-path="url(&quot;#SvgjsClipPath30710&quot;)" x="1083.39" y="3437.28" fill="url(&quot;#SvgjsPattern30711&quot;)" transform="rotate(194.54, 1267.59, 3621.48)"></rect><rect width="579.84" height="579.84" clip-path="url(&quot;#SvgjsClipPath30712&quot;)" x="69.18" y="1644.77" fill="url(&quot;#SvgjsPattern30713&quot;)" transform="rotate(46.85, 359.1, 1934.69)"></rect><rect width="432.96" height="432.96" clip-path="url(&quot;#SvgjsClipPath30714&quot;)" x="433.2" y="2443.36" fill="url(&quot;#SvgjsPattern30715&quot;)" transform="rotate(301.05, 649.68, 2659.84)"></rect><rect width="171.6" height="171.6" clip-path="url(&quot;#SvgjsClipPath30716&quot;)" x="160" y="1101.74" fill="url(&quot;#SvgjsPattern30717&quot;)" transform="rotate(139.09, 245.8, 1187.54)"></rect><rect width="501.12" height="501.12" clip-path="url(&quot;#SvgjsClipPath30718&quot;)" x="687.36" y="1308.05" fill="url(&quot;#SvgjsPattern30719&quot;)" transform="rotate(138.37, 937.92, 1558.61)"></rect><circle r="120" cx="497.92" cy="1446.57" fill="#d3b714"></circle><path d="M528.47 1201.91L520.55 1191.84 528.64 1181.91 520.73 1171.85 528.82 1161.92 520.9 1151.85 528.99 1141.92" stroke="rgba(214, 69, 80, 1)" stroke-width="1"></path></g><defs><mask id="SvgjsMask30709"><rect width="1440" height="4000" fill="#ffffff"></rect></mask><pattern x="0" y="0" width="368.4" height="12.28" patternUnits="userSpaceOnUse" id="SvgjsPattern30711"><rect width="368.4" height="6.14" x="0" y="0" fill="#d3b714"></rect><rect width="368.4" height="6.14" x="0" y="6.14" fill="rgba(0, 0, 0, 0)"></rect></pattern><clipPath id="SvgjsClipPath30710"><circle r="92.1" cx="1267.59" cy="3621.48"></circle></clipPath><pattern x="0" y="0" width="6.04" height="6.04" patternUnits="userSpaceOnUse" id="SvgjsPattern30713"><path d="M0 6.04L3.02 0L6.04 6.04" stroke="rgba(0, 0, 0, 1)" fill="none"></path></pattern><clipPath id="SvgjsClipPath30712"><circle r="144.96" cx="359.1" cy="1934.69"></circle></clipPath><pattern x="0" y="0" width="6.56" height="6.56" patternUnits="userSpaceOnUse" id="SvgjsPattern30715"><path d="M0 6.56L3.28 0L6.56 6.56" stroke="rgba(214, 69, 80, 1)" fill="none"></path></pattern><clipPath id="SvgjsClipPath30714"><circle r="108.24" cx="649.68" cy="2659.84"></circle></clipPath><pattern x="0" y="0" width="171.6" height="7.8" patternUnits="userSpaceOnUse" id="SvgjsPattern30717"><rect width="171.6" height="3.9" x="0" y="0" fill="#d3b714"></rect><rect width="171.6" height="3.9" x="0" y="3.9" fill="rgba(0, 0, 0, 0)"></rect></pattern><clipPath id="SvgjsClipPath30716"><circle r="42.9" cx="245.8" cy="1187.54"></circle></clipPath><pattern x="0" y="0" width="501.12" height="10.44" patternUnits="userSpaceOnUse" id="SvgjsPattern30719"><rect width="501.12" height="5.22" x="0" y="0" fill="rgba(214, 69, 80, 1)"></rect><rect width="501.12" height="5.22" x="0" y="5.22" fill="rgba(0, 0, 0, 0)"></rect></pattern><clipPath id="SvgjsClipPath30718"><circle r="125.28" cx="937.92" cy="1558.61"></circle></clipPath></defs></svg>