<svg width="206" height="59" viewBox="0 0 206 59" fill="none" xmlns="http://www.w3.org/2000/svg">
<path d="M56 0.959991H0V58.2355H56V0.959991Z" fill="#FEFFFF"/>
<g clip-path="url(#clip0_1_6)">
<path d="M10.725 41.0288L20.425 49.9528C28.625 57.4968 41.925 57.4968 50.125 49.9528L63.525 37.6248M15.925 36.3368L25.625 45.2608C31.025 50.2288 39.725 50.2288 45.025 45.2608L62.525 29.1608M59.825 31.5528L50.125 22.6288C41.925 15.0848 28.625 15.0848 20.425 22.6288L7.025 34.9568M54.725 36.3368L45.025 27.4128C39.625 22.4448 30.925 22.4448 25.625 27.4128L8.125 43.5128M55.325 54.7368C44.225 64.9488 26.325 64.9488 15.325 54.7368C4.225 44.5248 4.225 28.0568 15.325 17.9368C26.425 7.72476 44.325 7.72476 55.325 17.9368C66.425 28.0568 66.425 44.5248 55.325 54.7368ZM39.825 40.6608L44.625 36.2448L40.325 32.2888C38.925 31.0008 37.125 30.3568 35.325 30.3568C33.525 30.3568 31.725 31.0008 30.325 32.2888L26.025 36.2448L30.825 40.6608C32.025 41.7648 33.725 42.4088 35.325 42.4088C36.925 42.4088 38.525 41.8568 39.825 40.6608Z" stroke="#F44321" stroke-width="2" stroke-miterlimit="10"/>
</g>
<path d="M205.38 0.959991H58V58.2355H205.38V0.959991Z" fill="#FEFFFF"/>
<path d="M77.61 7.446C81.0967 7.446 84.2533 8.1636 87.08 9.5988C89.9 11.0279 92.1133 12.9997 93.72 15.5144C95.3267 18.0291 96.13 20.8443 96.13 23.96C96.13 27.0757 95.3167 29.8909 93.69 32.4056C92.0633 34.9203 89.8333 36.8952 87 38.3304C84.16 39.7595 80.98 40.474 77.46 40.474H63V7.446H77.61ZM77.72 36.3708C80.2133 36.3708 82.4767 35.8341 84.51 34.7608C86.5433 33.6936 88.15 32.2155 89.33 30.3264C90.51 28.4435 91.1 26.3367 91.1 24.006C91.1 21.6508 90.5033 19.5287 89.31 17.6396C88.11 15.7505 86.4767 14.2632 84.41 13.1776C82.3433 12.092 80.0433 11.5492 77.51 11.5492H67.92V36.3708H77.72ZM113.97 15.3764C116.67 15.3764 119.073 15.91 121.18 16.9772C123.28 18.0505 124.92 19.5379 126.1 21.4392C127.28 23.3405 127.87 25.5179 127.87 27.9712C127.87 30.4245 127.28 32.6111 126.1 34.5308C124.92 36.4505 123.28 37.944 121.18 39.0112C119.073 40.0784 116.67 40.612 113.97 40.612C111.237 40.612 108.82 40.0784 106.72 39.0112C104.613 37.944 102.97 36.4567 101.79 34.5492C100.61 32.6479 100.02 30.4552 100.02 27.9712C100.02 25.5179 100.61 23.3405 101.79 21.4392C102.97 19.5379 104.613 18.0505 106.72 16.9772C108.82 15.91 111.237 15.3764 113.97 15.3764ZM113.97 19.1944C112.197 19.1944 110.617 19.5716 109.23 20.326C107.843 21.0804 106.767 22.1261 106 23.4632C105.227 24.8003 104.84 26.3183 104.84 28.0172C104.84 29.7468 105.227 31.2893 106 32.6448C106.767 33.9941 107.843 35.0399 109.23 35.782C110.617 36.518 112.197 36.886 113.97 36.886C115.717 36.886 117.28 36.518 118.66 35.782C120.047 35.0399 121.127 33.9941 121.9 32.6448C122.667 31.2893 123.05 29.7468 123.05 28.0172C123.05 26.3183 122.667 24.8003 121.9 23.4632C121.127 22.1261 120.047 21.0804 118.66 20.326C117.28 19.5716 115.717 19.1944 113.97 19.1944ZM153.72 15.5144H158.54V40.474H153.72V35.1932C151.94 38.7444 148.587 40.5507 143.66 40.612C140.52 40.612 138.06 39.7564 136.28 38.0452C134.5 36.3279 133.61 33.9604 133.61 30.9428V15.5144H138.43V29.7652C138.43 31.8689 139.057 33.5127 140.31 34.6964C141.557 35.874 143.273 36.4628 145.46 36.4628C147.987 36.4321 149.997 35.6072 151.49 33.988C152.977 32.3688 153.72 30.3019 153.72 27.7872V15.5144ZM166.13 19.1484V15.5144L187.92 15.5604V18.6792L171.51 36.84L188.33 36.886V40.52L165.66 40.474V37.3644L182.02 19.1944L166.13 19.1484ZM195.05 40.474V15.5144H199.82V40.474H195.05ZM197.41 5.56C198.263 5.56 198.973 5.8268 199.54 6.3604C200.1 6.894 200.38 7.57173 200.38 8.3936C200.38 9.20933 200.1 9.884 199.54 10.4176C198.973 10.9573 198.263 11.2272 197.41 11.2272C196.557 11.2272 195.847 10.9573 195.28 10.4176C194.713 9.884 194.43 9.20933 194.43 8.3936C194.43 7.57173 194.713 6.894 195.28 6.3604C195.847 5.8268 196.557 5.56 197.41 5.56Z" fill="#F44321"/>
<path d="M93.09 49.4256H68V50.3456H93.09V49.4256Z" fill="black"/>
<path d="M195.38 49.4256H170.29V50.3456H195.38V49.4256Z" fill="black"/>
<path d="M96.086 49.8819C96.086 49.3054 96.176 48.7841 96.356 48.3179C96.5293 47.8518 96.7727 47.4593 97.086 47.1403C97.3993 46.8153 97.7693 46.5669 98.196 46.3951C98.6227 46.2173 99.0893 46.1283 99.596 46.1283C100.076 46.1283 100.496 46.2203 100.856 46.4043C101.216 46.5822 101.513 46.7907 101.746 47.0299L101.176 47.6095C100.969 47.4071 100.739 47.2446 100.486 47.1219C100.233 46.9993 99.9393 46.9379 99.606 46.9379C99.2327 46.9379 98.8927 47.0054 98.586 47.1403C98.2793 47.2753 98.0193 47.4715 97.806 47.7291C97.5927 47.9806 97.426 48.2873 97.306 48.6491C97.186 49.011 97.126 49.4158 97.126 49.8635C97.126 50.3174 97.1827 50.7283 97.296 51.0963C97.4093 51.4582 97.5727 51.7679 97.786 52.0255C97.9927 52.2831 98.246 52.4825 98.546 52.6235C98.846 52.7646 99.1827 52.8351 99.556 52.8351C99.9427 52.8351 100.276 52.7646 100.556 52.6235C100.843 52.4825 101.113 52.2831 101.366 52.0255L101.936 52.5867C101.623 52.9179 101.269 53.1755 100.876 53.3595C100.483 53.5435 100.036 53.6355 99.536 53.6355C99.036 53.6355 98.576 53.5527 98.156 53.3871C97.736 53.2154 97.3727 52.9701 97.066 52.6511C96.7593 52.3322 96.5193 51.9397 96.346 51.4735C96.1727 51.0013 96.086 50.4707 96.086 49.8819ZM118.396 53.5067V46.2663H119.396V49.3023H123.056V46.2663H124.066V53.5067H123.056V50.0935H119.396V53.5067H118.396ZM142.206 50.5627H144.566L144.196 49.4587C144.056 49.0539 143.919 48.6491 143.786 48.2443C143.659 47.8457 143.533 47.4347 143.406 47.0115H143.356C143.236 47.4347 143.113 47.8457 142.986 48.2443C142.859 48.6491 142.723 49.0539 142.576 49.4587L142.206 50.5627ZM145.566 53.5067L144.826 51.2987H141.956L141.196 53.5067H140.176L142.846 46.2663H143.966L146.636 53.5067H145.566ZM163.906 53.5067V47.0391H161.526V46.2663H167.286V47.0391H164.906V53.5067H163.906Z" fill="black"/>
<defs>
<clipPath id="clip0_1_6">
<rect width="46" height="42.32" fill="white" transform="translate(5 8.43776)"/>
</clipPath>
</defs>
</svg>
