<svg width="234" height="39" viewBox="0 0 234 39" fill="none" xmlns="http://www.w3.org/2000/svg">
<g clip-path="url(#clip0_6_5)">
<g clip-path="url(#clip1_6_5)">
<path d="M31.5557 2.26803C30.4985 1.21383 29.1599 0.486566 27.7001 0.173241C26.2403 -0.140085 24.7212 -0.0261981 23.3244 0.501275C21.9277 1.02875 20.7125 1.94747 19.8242 3.14752C18.9359 4.34757 18.4122 5.77813 18.3157 7.26803C19.4167 7.1942 20.5207 7.3548 21.555 7.7392C22.5893 8.12361 23.5303 8.72309 24.3157 9.49803L31.5557 2.26803ZM27.8157 42.618C28.6012 43.393 29.5422 43.9925 30.5764 44.3769C31.6107 44.7613 32.7148 44.9219 33.8157 44.848C33.7192 46.3379 33.1955 47.7685 32.3073 48.9685C31.419 50.1686 30.2038 51.0873 28.807 51.6148C27.4103 52.1423 25.8912 52.2562 24.4314 51.9428C22.9716 51.6295 21.633 50.9022 20.5757 49.848L27.8157 42.618Z" fill="#56181B"/>
<path d="M24.3457 9.47805C31.3457 16.358 35.7657 20.908 42.7057 27.828C44.1519 29.2934 44.9627 31.2693 44.9627 33.328C44.9627 35.3868 44.1519 37.3627 42.7057 38.828L50.0157 31.668C50.739 30.9463 51.3128 30.089 51.7043 29.1453C52.0958 28.2015 52.2973 27.1898 52.2973 26.168C52.2973 25.1463 52.0958 24.1346 51.7043 23.1908C51.3128 22.2471 50.739 21.3898 50.0157 20.668C43.0157 13.668 38.5657 9.19805 31.5957 2.24805L24.3457 9.47805ZM2.28573 31.528C1.56129 30.807 0.986437 29.9499 0.594181 29.0061C0.201926 28.0622 0 27.0502 0 26.028C0 25.0059 0.201926 23.9939 0.594181 23.05C0.986437 22.1062 1.56129 21.2491 2.28573 20.528L9.52573 13.288C8.07721 14.7521 7.26473 16.7285 7.26473 18.788C7.26473 20.8476 8.07721 22.824 9.52573 24.288L27.8157 42.618L20.6357 49.868C13.6357 42.868 9.24573 38.498 2.29573 31.528H2.28573Z" fill="#A4353D"/>
<path d="M13.3257 20.488C12.6013 19.767 12.0264 18.9099 11.6342 17.9661C11.2419 17.0222 11.04 16.0102 11.04 14.988C11.04 13.9659 11.2419 12.9539 11.6342 12.01C12.0264 11.0662 12.6013 10.2091 13.3257 9.48805L20.5657 2.24805C19.1196 3.71338 18.3088 5.6893 18.3088 7.74805C18.3088 9.8068 19.1196 11.7827 20.5657 13.248L38.8157 31.558C40.2619 33.0234 41.0727 34.9993 41.0727 37.058C41.0727 39.1168 40.2619 41.0927 38.8157 42.558L31.5757 49.798C33.0219 48.3327 33.8327 46.3568 33.8327 44.298C33.8327 42.2393 33.0219 40.2634 31.5757 38.798L13.3257 20.488Z" fill="#A4353D"/>
</g>
</g>
<path d="M59.8373 32.4349H58.9873C58.3539 33.9215 57.4706 34.9715 56.3373 35.5849C55.2039 36.1982 53.8806 36.5049 52.3673 36.5049C50.9473 36.5049 49.6139 36.2382 48.3673 35.7049C47.1206 35.1649 46.0239 34.3749 45.0773 33.3349C44.1306 32.2949 43.3806 31.0349 42.8273 29.5549C42.2739 28.0682 41.9973 26.3782 41.9973 24.4849V23.7349C41.9973 21.8682 42.2673 20.1949 42.8073 18.7149C43.3406 17.2349 44.0639 15.9749 44.9773 14.9349C45.8973 13.8882 46.9639 13.0915 48.1773 12.5449C49.3906 11.9915 50.6906 11.7149 52.0773 11.7149C53.7506 11.7149 55.1006 11.9982 56.1273 12.5649C57.1539 13.1315 57.9639 14.0149 58.5573 15.2149H59.4173V12.3749H65.3773V28.7449C65.3773 29.6915 65.8039 30.1649 66.6573 30.1649H67.5473V35.8449H63.4873C62.4139 35.8449 61.5373 35.5282 60.8573 34.8949C60.1773 34.2682 59.8373 33.4482 59.8373 32.4349ZM53.6873 30.8249C55.4206 30.8249 56.8073 30.2515 57.8473 29.1049C58.8939 27.9515 59.4173 26.3815 59.4173 24.3949V23.8249C59.4173 21.8382 58.8939 20.2682 57.8473 19.1149C56.8073 17.9682 55.4206 17.3949 53.6873 17.3949C51.9539 17.3949 50.5673 17.9682 49.5273 19.1149C48.4806 20.2682 47.9573 21.8382 47.9573 23.8249V24.3949C47.9573 26.3815 48.4806 27.9515 49.5273 29.1049C50.5673 30.2515 51.9539 30.8249 53.6873 30.8249Z" fill="#D64550"/>
<path d="M70.9984 18.0549V12.3749H77.6684V7.54485C77.6684 6.19152 78.1284 5.04819 79.0484 4.11485C79.9618 3.18819 81.0951 2.72485 82.4484 2.72485H92.0084V8.40485H84.9084C84.0618 8.40485 83.6384 8.87485 83.6384 9.81485V12.3749H92.8584V18.0549H83.6384V35.8449H77.6684V18.0549H70.9984Z" fill="#D64550"/>
<path d="M120.419 23.8249V24.3949C120.419 26.3482 120.085 28.0749 119.419 29.5749C118.759 31.0749 117.862 32.3382 116.729 33.3649C115.589 34.3849 114.285 35.1649 112.819 35.7049C111.352 36.2382 109.815 36.5049 108.209 36.5049C106.602 36.5049 105.065 36.2382 103.599 35.7049C102.132 35.1649 100.829 34.3849 99.6887 33.3649C98.5554 32.3382 97.6554 31.0749 96.9887 29.5749C96.3287 28.0749 95.9987 26.3482 95.9987 24.3949V23.8249C95.9987 21.8982 96.3287 20.1882 96.9887 18.6949C97.6554 17.1949 98.5554 15.9249 99.6887 14.8849C100.829 13.8449 102.132 13.0549 103.599 12.5149C105.065 11.9815 106.602 11.7149 108.209 11.7149C109.815 11.7149 111.352 11.9815 112.819 12.5149C114.285 13.0549 115.589 13.8449 116.729 14.8849C117.862 15.9249 118.759 17.1949 119.419 18.6949C120.085 20.1882 120.419 21.8982 120.419 23.8249ZM108.209 30.8249C109.062 30.8249 109.865 30.6849 110.619 30.4049C111.379 30.1182 112.042 29.7082 112.609 29.1749C113.175 28.6349 113.625 27.9782 113.959 27.2049C114.292 26.4382 114.459 25.5649 114.459 24.5849V23.6349C114.459 22.6549 114.292 21.7815 113.959 21.0149C113.625 20.2415 113.175 19.5849 112.609 19.0449C112.042 18.5115 111.379 18.1015 110.619 17.8149C109.865 17.5349 109.062 17.3949 108.209 17.3949C107.355 17.3949 106.552 17.5349 105.799 17.8149C105.039 18.1015 104.375 18.5115 103.809 19.0449C103.242 19.5849 102.792 20.2415 102.459 21.0149C102.125 21.7815 101.959 22.6549 101.959 23.6349V24.5849C101.959 25.5649 102.125 26.4382 102.459 27.2049C102.792 27.9782 103.242 28.6349 103.809 29.1749C104.375 29.7082 105.039 30.1182 105.799 30.4049C106.552 30.6849 107.355 30.8249 108.209 30.8249Z" fill="#D64550"/>
<path d="M123.999 35.8449V2.72485H134.979L136.869 27.6149V32.4349H138.009V27.6149L139.899 2.72485H150.879V35.8449H145.199V13.6949L145.769 6.12485H144.629L142.169 35.8449H132.799L130.249 6.12485H129.109L129.679 13.6949V35.8449H123.999Z" fill="#D64550"/>
<path d="M171.837 32.4349H170.987C170.354 33.9215 169.471 34.9715 168.337 35.5849C167.204 36.1982 165.881 36.5049 164.367 36.5049C162.947 36.5049 161.614 36.2382 160.367 35.7049C159.121 35.1649 158.024 34.3749 157.077 33.3349C156.131 32.2949 155.381 31.0349 154.827 29.5549C154.274 28.0682 153.997 26.3782 153.997 24.4849V23.7349C153.997 21.8682 154.267 20.1949 154.807 18.7149C155.341 17.2349 156.064 15.9749 156.977 14.9349C157.897 13.8882 158.964 13.0915 160.177 12.5449C161.391 11.9915 162.691 11.7149 164.077 11.7149C165.751 11.7149 167.101 11.9982 168.127 12.5649C169.154 13.1315 169.964 14.0149 170.557 15.2149H171.417V12.3749H177.377V28.7449C177.377 29.6915 177.804 30.1649 178.657 30.1649H179.547V35.8449H175.487C174.414 35.8449 173.537 35.5282 172.857 34.8949C172.177 34.2682 171.837 33.4482 171.837 32.4349ZM165.687 30.8249C167.421 30.8249 168.807 30.2515 169.847 29.1049C170.894 27.9515 171.417 26.3815 171.417 24.3949V23.8249C171.417 21.8382 170.894 20.2682 169.847 19.1149C168.807 17.9682 167.421 17.3949 165.687 17.3949C163.954 17.3949 162.567 17.9682 161.527 19.1149C160.481 20.2682 159.957 21.8382 159.957 23.8249V24.3949C159.957 26.3815 160.481 27.9515 161.527 29.1049C162.567 30.2515 163.954 30.8249 165.687 30.8249Z" fill="#D64550"/>
<path d="M183.573 18.0549V12.3749H193.503V15.7849H194.353C194.799 14.4915 195.549 13.4882 196.603 12.7749C197.663 12.0682 198.933 11.7149 200.413 11.7149C202.746 11.7149 204.623 12.4482 206.043 13.9149C207.463 15.3815 208.173 17.6115 208.173 20.6049V21.6449L202.023 22.2149V21.5549C202.023 20.2615 201.693 19.2282 201.033 18.4549C200.366 17.6815 199.369 17.2949 198.043 17.2949C196.723 17.2949 195.683 17.7515 194.923 18.6649C194.169 19.5849 193.793 20.8949 193.793 22.5949V30.1649H199.183V35.8449H183.003V30.1649H187.823V18.0549H183.573Z" fill="#D64550"/>
<path d="M212.002 18.0549V12.3749H218.952V2.72485H224.922V12.3749H233.392V18.0549H224.922V28.7449C224.922 29.6915 225.345 30.1649 226.192 30.1649H232.532V35.8449H222.602C221.528 35.8449 220.652 35.4982 219.972 34.8049C219.292 34.1115 218.952 33.2282 218.952 32.1549V18.0549H212.002Z" fill="#D64550"/>
<defs>
<clipPath id="clip0_6_5">
<rect width="38.7009" height="38.5667" fill="white"/>
</clipPath>
<clipPath id="clip1_6_5">
<rect width="52.2973" height="52.1161" fill="white"/>
</clipPath>
</defs>
</svg>
