<svg id="visual" viewBox="0 0 900 600" width="900" height="600" xmlns="http://www.w3.org/2000/svg" xmlns:xlink="http://www.w3.org/1999/xlink" version="1.1"><path d="M186 600L164 545L192 491L164 436L184 382L192 327L198 273L173 218L198 164L187 109L196 55L186 0L900 0L900 55L900 109L900 164L900 218L900 273L900 327L900 382L900 436L900 491L900 545L900 600Z" fill="#f48e1f"></path><path d="M273 600L295 545L275 491L276 436L279 382L296 327L272 273L298 218L281 164L283 109L274 55L276 0L900 0L900 55L900 109L900 164L900 218L900 273L900 327L900 382L900 436L900 491L900 545L900 600Z" fill="#f3812a"></path><path d="M395 600L394 545L379 491L387 436L378 382L392 327L375 273L391 218L389 164L373 109L374 55L396 0L900 0L900 55L900 109L900 164L900 218L900 273L900 327L900 382L900 436L900 491L900 545L900 600Z" fill="#f07433"></path><path d="M483 600L471 545L481 491L475 436L489 382L486 327L490 273L476 218L475 164L490 109L489 55L481 0L900 0L900 55L900 109L900 164L900 218L900 273L900 327L900 382L900 436L900 491L900 545L900 600Z" fill="#ec673b"></path><path d="M573 600L589 545L582 491L590 436L586 382L580 327L597 273L580 218L575 164L589 109L578 55L595 0L900 0L900 55L900 109L900 164L900 218L900 273L900 327L900 382L900 436L900 491L900 545L900 600Z" fill="#e65b43"></path><path d="M690 600L692 545L682 491L688 436L679 382L678 327L694 273L678 218L696 164L677 109L696 55L683 0L900 0L900 55L900 109L900 164L900 218L900 273L900 327L900 382L900 436L900 491L900 545L900 600Z" fill="#df4f4a"></path><path d="M798 600L796 545L796 491L798 436L795 382L793 327L785 273L797 218L783 164L783 109L780 55L787 0L900 0L900 55L900 109L900 164L900 218L900 273L900 327L900 382L900 436L900 491L900 545L900 600Z" fill="#d64550"></path></svg>